<svg xmlns="http://www.w3.org/2000/svg" fill="none" viewBox="-0.5 -0.5 24 24" id="Adobe-Lightroom--Streamline-Svg-Logos.svg" height="24" width="24"><desc>Adobe Lightroom Streamline Icon: https://streamlinehq.com</desc><path fill="#001E36" d="M19.021598958333332 0.5210458333333333h-15.043197916666667C1.9135065625 0.5210458333333333 0.23958333333333334 2.1949690625 0.23958333333333334 4.259863541666667v14.480177083333334c0 2.064896875 1.6739232291666668 3.7388177083333334 3.7388177083333334 3.7388177083333334h15.043197916666667C21.086495833333334 22.478858333333335 22.760416666666668 20.804937499999998 22.760416666666668 18.740040625000002v-14.480177083333334c0 -2.064894479166667 -1.6739208333333333 -3.7388177083333334 -3.7388177083333334 -3.7388177083333334Z" stroke-width="1"></path><path fill="#31A8FF" d="M12.066926041666667 16.040080208333332h-5.952447916666666c-0.10074479166666667 0 -0.15110520833333335 -0.055391666666666665 -0.15105729166666665 -0.16617500000000002V6.280485416666667c-0.005342708333333334 -0.037446875 0.007235416666666667 -0.07522916666666667 0.033996875 -0.10199062500000002 0.02676145833333333 -0.0267375 0.06454375 -0.03933958333333334 0.10199062500000002 -0.03397291666666667h1.8431385416666668c0.029133333333333334 -0.004120833333333333 0.05848229166666667 0.005702083333333334 0.079278125 0.02649791666666667 0.020771875000000002 0.020795833333333336 0.03059479166666667 0.050144791666666674 0.026473958333333335 0.07925416666666667v7.886244791666667h4.33593125c0.090634375 0 0.12587708333333333 0.04532916666666667 0.10575208333333334 0.13596354166666666l-0.27195104166666667 1.631634375c-0.0012937500000000002 0.045137500000000004 -0.023646875 0.08708854166666667 -0.060422916666666666 0.11329895833333334 -0.028031250000000004 0.014566666666666667 -0.05910520833333334 0.022329166666666667 -0.09068229166666666 0.022664583333333335Zm1.495575 -7.508541666666667h1.646728125c0.09188020833333334 0.000790625 0.17204479166666667 0.06248333333333333 0.1963625 0.15108125000000003 0.035961458333333335 0.06617291666666666 0.061429166666666674 0.13752083333333331 0.07556458333333334 0.2115041666666667 0.021083333333333332 0.09717500000000001 0.036225 0.195571875 0.04530520833333333 0.294615625 0.009942708333333335 0.10575208333333334 0.014997916666666668 0.21905104166666667 0.01514166666666667 0.33989687500000004 0.28239687500000005 -0.328828125 0.6229645833333334 -0.602815625 1.0046447916666668 -0.8082343750000001 0.42875833333333335 -0.23182083333333334 0.9101531250000001 -0.3489291666666667 1.3974895833333334 -0.3399447916666667 0.037446875 -0.005342708333333334 0.07522916666666667 0.007259375 0.10196666666666666 0.033996875 0.0267375 0.02676145833333333 0.03933958333333334 0.06454375 0.03397291666666667 0.10199062500000002v1.8280208333333334c0 0.07058125 -0.05036041666666667 0.10584791666666668 -0.15105729166666665 0.10575208333333334 -0.608565625 -0.037638541666666664 -1.2172989583333333 0.07115625 -1.77516875 0.31728020833333337 -0.18958229166666668 0.082009375 -0.36145937499999997 0.20000416666666668 -0.5060958333333334 0.34746770833333335v4.789151041666667c0 0.09065833333333334 -0.04029791666666666 0.1359875 -0.12086979166666666 0.1359875h-1.8280447916666667c-0.041615625 0.005965625 -0.08361458333333333 -0.008026041666666667 -0.11332291666666666 -0.03775833333333333 -0.029732291666666667 -0.029732291666666667 -0.04372395833333333 -0.07173125 -0.037734375 -0.11334687500000001v-5.197041666666667c0 -0.12654791666666668 -0.0008385416666666667 -0.25724062500000006 -0.0024677083333333335 -0.39207812500000006l-0.003090625 -0.20539479166666666c-0.0006229166666666667 -0.03476354166666667 -0.0012937500000000002 -0.06976666666666667 -0.0020125 -0.10503333333333334 -0.00388125 -0.18503020833333333 -0.009104166666666667 -0.36867083333333334 -0.015668750000000002 -0.5509458333333334l-0.006995833333333334 -0.18179583333333335c-0.006684375 -0.20755104166666666 -0.026857291666666668 -0.4144552083333333 -0.060398958333333336 -0.6193947916666668 -0.0076906249999999995 -0.02975625 0.0009104166666666667 -0.06138125 0.022640625 -0.08311145833333333 0.019022916666666667 -0.019022916666666667 0.045592708333333336 -0.02800729166666667 0.07189895833333333 -0.024796875l0.0112125 0.002132291666666667Z" stroke-width="1"></path></svg>