<svg xmlns="http://www.w3.org/2000/svg" fill="none" viewBox="-0.5 -0.5 24 24" id="Adobe-Illustrator--Streamline-Svg-Logos.svg" height="24" width="24"><desc>Adobe Illustrator Streamline Icon: https://streamlinehq.com</desc><path fill="#300" d="M19.021598958333332 0.5210458333333333h-15.043197916666667C1.9135065625 0.5210458333333333 0.23958333333333334 2.1949690625 0.23958333333333334 4.259863541666667v14.480177083333334c0 2.064896875 1.6739232291666668 3.7388177083333334 3.7388177083333334 3.7388177083333334h15.043197916666667C21.086495833333334 22.478858333333335 22.760416666666668 20.804937499999998 22.760416666666668 18.740040625000002v-14.480177083333334c0 -2.064894479166667 -1.6739208333333333 -3.7388177083333334 -3.7388177083333334 -3.7388177083333334Z" stroke-width="1"></path><path fill="#FF9A00" d="M11.152795833333334 13.698368750000002H7.662929166666667l-0.710053125 2.2057479166666667c-0.019981250000000002 0.08296770833333333 -0.09607291666666667 0.14003645833333334 -0.18131666666666668 0.13596354166666666h-1.7675979166666667c-0.10079270833333334 0 -0.13603541666666666 -0.055391666666666665 -0.10575208333333334 -0.16617500000000002l3.021529166666667 -8.702073958333333c0.03023541666666667 -0.090634375 0.06047083333333334 -0.19387083333333335 0.09068229166666666 -0.309709375 0.039507291666666666 -0.20156145833333336 0.05975208333333334 -0.4064291666666667 0.060422916666666666 -0.6118479166666666 -0.00416875 -0.029109375 0.005630208333333333 -0.05850625 0.02645 -0.07930208333333334 0.020795833333333336 -0.020819791666666667 0.050168750000000005 -0.03061875 0.07930208333333334 -0.026473958333333335h2.4020864583333332c0.07038958333333334 0 0.11066354166666667 0.025204166666666666 0.12086979166666666 0.07556458333333334l3.4294916666666664 9.668936458333334c0.030211458333333333 0.10079270833333334 -0.00002395833333333333 0.151153125 -0.09068229166666666 0.15108125000000003h-1.9640083333333334c-0.06979062500000001 0.007738541666666668 -0.13445416666666668 -0.037542708333333334 -0.15105729166666665 -0.10575208333333334l-0.7705000000000001 -2.235959375Zm-2.9460125 -1.9035614583333333h2.387040625l-0.03397291666666667 -0.112340625 -0.054696875000000006 -0.17789062500000002 -0.03893229166666667 -0.12487083333333333 -0.06219583333333333 -0.19667395833333334 -0.13225 -0.41414375 -0.11629375 -0.3671375 -0.30197083333333335 -0.9562010416666666c-0.07767291666666666 -0.246028125 -0.14981145833333334 -0.48467708333333337 -0.216415625 -0.7159229166666666l-0.055271875 -0.19435000000000002 -0.06459166666666667 -0.22995208333333333 -0.09856458333333333 -0.3562125c-0.00618125 -0.022640625 -0.012290625 -0.04504166666666667 -0.018352083333333335 -0.067203125h-0.015117708333333335c-0.07558854166666668 0.36268125 -0.16766041666666667 0.7217208333333334 -0.2759041666666667 1.0759927083333334l-0.22415416666666668 0.72090625 -0.12331354166666668 0.39833125 -0.12446354166666666 0.403290625c-0.022496875 0.07285729166666667 -0.04489791666666667 0.14485208333333335 -0.067275 0.21603229166666665l-0.06686770833333334 0.21102500000000002 -0.06653229166666667 0.20596979166666668 -0.06614895833333334 0.20096250000000002 -0.06576562500000001 0.19593125c-0.021873958333333336 0.064471875 -0.043676041666666665 0.12810520833333333 -0.06540625000000001 0.1909l-0.03258333333333334 0.09355729166666667Zm7.961617708333333 -4.0488625c-0.31165 0.012506250000000002 -0.613884375 -0.10838750000000001 -0.8309229166666667 -0.33237395833333333 -0.21615208333333336 -0.233378125 -0.33036145833333336 -0.543303125 -0.31730416666666666 -0.861134375 -0.011092708333333335 -0.31512395833333334 0.11253229166666667 -0.620065625 0.33992083333333334 -0.83849375 0.21715833333333334 -0.2084375 0.5061197916666667 -0.32465937500000003 0.80629375 -0.3251864583333333l0.0322 0.00038333333333333334c0.362609375 0 0.6471385416666666 0.10826770833333334 0.8536114583333334 0.32480312499999997 0.21047395833333332 0.22729270833333334 0.32190416666666666 0.5289520833333334 0.30968541666666666 0.83849375 0.012769791666666667 0.3191729166666667 -0.10443437500000001 0.6298885416666667 -0.32480312499999997 0.861134375 -0.22278854166666667 0.21962604166666666 -0.5245197916666666 0.3395375 -0.8363854166666668 0.3334520833333333l-0.032295833333333336 -0.0010781249999999999Zm-1.042475 8.143054166666667V8.667502083333334c0 -0.090634375 0.04013020833333334 -0.1359875 0.12086979166666666 -0.1359875h1.8582802083333334c0.0805 0 0.12077395833333333 0.04532916666666667 0.12086979166666666 0.1359875v7.221496875000001c0 0.10079270833333334 -0.04029791666666666 0.151153125 -0.12086979166666666 0.15108125000000003h-1.8431625c-0.08586666666666667 0 -0.13105208333333335 -0.045209375 -0.13560416666666666 -0.13560416666666666l-0.00038333333333333334 -0.015477083333333336Z" stroke-width="1"></path></svg>