<svg xmlns="http://www.w3.org/2000/svg" fill="none" viewBox="-0.5 -0.5 24 24" id="Adobe-Photoshop--Streamline-Svg-Logos.svg" height="24" width="24"><desc>Adobe Photoshop Streamline Icon: https://streamlinehq.com</desc><path fill="#001E36" d="M19.021598958333332 0.5210458333333333h-15.043197916666667C1.9135065625 0.5210458333333333 0.23958333333333334 2.1949690625 0.23958333333333334 4.259863541666667v14.480177083333334c0 2.064896875 1.6739232291666668 3.7388177083333334 3.7388177083333334 3.7388177083333334h15.043197916666667C21.086495833333334 22.478858333333335 22.760416666666668 20.804937499999998 22.760416666666668 18.740040625000002v-14.480177083333334c0 -2.064894479166667 -1.6739208333333333 -3.7388177083333334 -3.7388177083333334 -3.7388177083333334Z" stroke-width="1"></path><path fill="#31A8FF" d="M5.310723958333333 15.919210416666669V6.265391666666667c0 -0.070365625 0.03023541666666667 -0.10577604166666667 0.09068229166666666 -0.10577604166666667l0.09559375 -0.0002875 0.16344375000000003 -0.001796875 0.22719687500000002 -0.00445625 0.7609885416666666 -0.0161 0.8158291666666666 -0.015117708333333335c0.28702083333333334 -0.004959375 0.5715260416666667 -0.007570833333333335 0.8535635416666667 -0.007570833333333335 0.7653010416666667 0 1.4099000000000002 0.09568958333333333 1.9337729166666668 0.2870447916666667 0.472578125 0.15985000000000002 0.9035406250000001 0.4230802083333334 1.2615260416666667 0.7705000000000001 0.30348020833333333 0.30113229166666666 0.537984375 0.6645322916666666 0.6873885416666667 1.0650916666666665 0.14133020833333335 0.38985000000000003 0.2129416666666667 0.8015260416666666 0.2115760416666667 1.2161729166666668 0 0.8059104166666666 -0.18637187500000002 1.4706583333333334 -0.5590197916666667 1.9942197916666669 -0.36471770833333333 0.5111270833333333 -0.8732333333333334 0.9016239583333334 -1.460284375 1.1221604166666665l-0.05050416666666666 0.018471875000000002c-0.61338125 0.22887395833333335 -1.2927197916666666 0.3115541666666667 -2.0377760416666666 0.31680104166666667l-0.11574270833333333 0.00023958333333333335 -0.17178125 -0.0009104166666666667 -0.08672916666666666 -0.0011739583333333333 -0.0966 -0.0023 -0.058146875 -0.0022760416666666667 -0.035386458333333336 -0.0018208333333333334 -0.08701666666666667 -0.003210416666666667 -0.10635104166666667 -0.002132291666666667 -0.16013750000000002 -0.001221875c-0.011667708333333334 -0.00002395833333333333 -0.023551041666666668 -0.00002395833333333333 -0.03565 -0.00004791666666666667v3.014221875c0.005342708333333334 0.037446875 -0.007259375 0.07522916666666667 -0.033996875 0.10196666666666666 -0.02676145833333333 0.02676145833333333 -0.06454375 0.03933958333333334 -0.10199062500000002 0.033996875h-1.7986958333333334c-0.07055729166666666 0 -0.10575208333333334 -0.04013020833333334 -0.10575208333333334 -0.12086979166666666Zm2.040435416666667 -7.946667708333334v3.1487000000000003c0.13076458333333332 0.010134375 0.25161041666666667 0.015165625 0.36256145833333336 0.015093750000000001h0.4985489583333334c0.3438979166666667 -0.00115 0.6856875 -0.052348958333333334 1.0146114583333332 -0.15189583333333334l0.065621875 -0.02055625c0.29928750000000004 -0.088909375 0.566734375 -0.26196041666666664 0.7704760416666667 -0.4985489583333334 0.18936666666666668 -0.2232916666666667 0.28745208333333333 -0.5309645833333334 0.29423229166666665 -0.9229947916666668l0.00038333333333333334 -0.04389166666666667c0.007978125 -0.29224375 -0.068065625 -0.5806302083333335 -0.21909895833333334 -0.8309468750000001 -0.158771875 -0.24205104166666666 -0.38822083333333335 -0.42930937500000005 -0.6571770833333334 -0.5363072916666667 -0.35118125 -0.13651458333333333 -0.7262729166666667 -0.200746875 -1.10285 -0.18883958333333334l-0.19161875 0.0005510416666666667 -0.12084583333333333 0.00100625 -0.11538333333333334 0.0014854166666666666 -0.162725 0.0031864583333333332 -0.11871354166666667 0.0033541666666666668 -0.06176458333333333 0.0022760416666666667 -0.082440625 0.0038333333333333336 -0.07017395833333333 0.004336458333333334 -0.04001041666666667 0.0031625 -0.034523958333333334 0.0034020833333333338c-0.0053187500000000006 0.000575 -0.010397916666666668 0.0011739583333333333 -0.015237500000000001 0.0017729166666666668l-0.013871875 0.0018208333333333334Zm10.902431250000001 2.5761677083333336c-0.2636614583333334 -0.13546041666666667 -0.5432312499999999 -0.23716354166666667 -0.8320968750000001 -0.30276145833333334l-0.06681979166666667 -0.014494791666666666c-0.31795104166666666 -0.07295312500000001 -0.6424666666666667 -0.11310729166666668 -0.9684677083333334 -0.1198875l-0.08153020833333334 -0.0009822916666666667c-0.19113958333333333 -0.005198958333333334 -0.3820395833333334 0.017729166666666667 -0.5665427083333333 0.06799375 -0.11744375000000001 0.026138541666666668 -0.22180625 0.09305416666666667 -0.294615625 0.18883958333333334 -0.049234375 0.07661875 -0.07544479166666668 0.16576770833333332 -0.07551666666666666 0.25683333333333336 0.0027552083333333335 0.08835833333333334 0.03461979166666666 0.17333854166666668 0.090634375 0.241715625 0.08023645833333333 0.09384479166666666 0.17664479166666666 0.17240416666666666 0.284553125 0.2319885416666667l0.032703125000000006 0.017297916666666666c0.21540937500000001 0.11598229166666667 0.437359375 0.21941041666666666 0.6647479166666667 0.309709375 0.5070302083333333 0.16972083333333335 0.9915395833333335 0.400559375 1.4427708333333336 0.6873885416666667 0.307409375 0.19401458333333332 0.5617989583333334 0.46138958333333335 0.7402885416666667 0.778046875 0.15009895833333334 0.29986250000000003 0.22528020833333334 0.6316375000000001 0.21907500000000002 0.9669104166666668 0.009032291666666666 0.4427020833333334 -0.11746770833333334 0.8776177083333334 -0.36256145833333336 1.246384375 -0.262415625 0.37434895833333337 -0.62689375 0.6653947916666667 -1.050021875 0.8384697916666667 -0.4431333333333333 0.19466145833333334 -0.9873229166666668 0.2952625 -1.6324968750000002 0.30182708333333336l-0.06710729166666668 0.0003354166666666667c-0.40000833333333335 0.004048958333333333 -0.79939375 -0.030978125000000002 -1.192478125 -0.10450625l-0.08411770833333335 -0.01636354166666667c-0.33105625 -0.06068645833333334 -0.6532958333333333 -0.16217395833333334 -0.9593635416666666 -0.3021385416666667 -0.06293854166666667 -0.03251145833333333 -0.10304479166666666 -0.09621666666666667 -0.10575208333333334 -0.16622291666666666l0 -1.6467041666666666c-0.0037135416666666666 -0.032559375 0.010829166666666666 -0.06449583333333334 0.03780625 -0.08311145833333333 0.026545833333333334 -0.015021875000000002 0.05965625 -0.012003125 0.08306354166666667 0.007570833333333335 0.36145937499999997 0.21313333333333334 0.7539208333333334 0.368575 1.1632968750000001 0.4607666666666667 0.36081250000000004 0.09044270833333334 0.7309208333333334 0.13862291666666668 1.10285 0.143534375 0.3524510416666667 0 0.6118 -0.04532916666666667 0.778046875 -0.13596354166666666 0.15338125 -0.070221875 0.25105937500000003 -0.22413020833333333 0.24931041666666667 -0.392796875 0 -0.13078854166666667 -0.07554062500000001 -0.256665625 -0.226621875 -0.37770312500000003 -0.06334583333333334 -0.050671875 -0.15414791666666666 -0.1058 -0.27243020833333337 -0.16533645833333335l-0.05651770833333333 -0.02779166666666667 -0.06044687500000001 -0.028438541666666668c-0.010397916666666668 -0.004791666666666667 -0.020939583333333334 -0.009607291666666667 -0.03167291666666667 -0.014446875l-0.06629270833333334 -0.029348958333333335c-0.01135625 -0.004959375 -0.02290416666666667 -0.00991875 -0.03459583333333333 -0.014926041666666667l-0.07213854166666667 -0.03030729166666667c-0.012338541666666666 -0.005103125 -0.024844791666666668 -0.010230208333333334 -0.03751875 -0.015405208333333333l-0.07798437500000001 -0.031241666666666664c-0.013320833333333334 -0.005270833333333333 -0.026809375 -0.010565625 -0.04044166666666667 -0.015860416666666665l-0.08383020833333334 -0.0322 -0.08773541666666668 -0.032822916666666674c-0.474375 -0.16512083333333336 -0.9241447916666667 -0.393803125 -1.33701875 -0.6798416666666667 -0.295334375 -0.20539479166666666 -0.5384875 -0.4770104166666667 -0.7100770833333333 -0.7931645833333334 -0.148565625 -0.29770625 -0.223675 -0.6266541666666667 -0.21905104166666667 -0.9593395833333334 -0.0008385416666666667 -0.39972083333333336 0.1089625 -0.7918947916666667 0.31725625 -1.1330854166666666 0.23749895833333334 -0.375690625 0.578521875 -0.6747385416666667 0.9820281250000001 -0.861134375 0.4430614583333333 -0.2214229166666667 0.9970260416666668 -0.33220625000000004 1.6618458333333335 -0.33237395833333333 0.38934687500000004 -0.0031145833333333334 0.778334375 0.024653125 1.1632968750000001 0.08311145833333333 0.27875520833333334 0.03533854166666667 0.5513052083333333 0.10905833333333334 0.8098875 0.21905104166666667 0.041567708333333335 0.01193125 0.07513333333333333 0.04269375 0.09061041666666667 0.08308750000000001 0.010230208333333334 0.036895833333333336 0.015309375 0.0750375 0.015117708333333335 0.11332291666666666v1.5258583333333335c0.002132291666666667 0.036153125 -0.015117708333333335 0.07067708333333333 -0.04530520833333333 0.09065833333333334 -0.04094479166666667 0.020364583333333335 -0.08907708333333333 0.020364583333333335 -0.130021875 0Z" stroke-width="1"></path></svg>