<svg xmlns="http://www.w3.org/2000/svg" fill="none" viewBox="-0.5 -0.5 24 24" id="Adobe-Premiere--Streamline-Svg-Logos.svg" height="24" width="24"><desc>Adobe Premiere Streamline Icon: https://streamlinehq.com</desc><path fill="#00005B" d="M4.227639583333334 0.5210458333333333h14.544720833333333C20.977509375 0.5210458333333333 22.760416666666668 2.3039459375 22.760416666666668 4.5091020833333335V18.490802083333335c0 2.2051489583333335 -1.7829072916666668 3.9880562500000005 -3.9880562500000005 3.9880562500000005H4.227639583333334C2.0224834375 22.478858333333335 0.23958333333333334 20.695951041666667 0.23958333333333334 18.490802083333335V4.5091020833333335C0.23958333333333334 2.3039459375 2.0224834375 0.5210458333333333 4.227639583333334 0.5210458333333333Z" stroke-width="1"></path><path fill="#99F" d="M5.588329166666667 15.919665625V6.263858333333333c0 -0.06566979166666667 0.028151041666666664 -0.10321250000000001 0.09384479166666666 -0.10321250000000001l0.13617916666666668 -0.000215625 0.105440625 -0.0009583333333333334 0.07434270833333334 -0.0013177083333333333 0.07908645833333333 -0.0020604166666666666 0.08514791666666667 -0.002970833333333333 0.04528125 -0.00186875c0.084453125 -0.003521875 0.17022395833333334 -0.005702083333333334 0.25781562500000005 -0.007570833333333335l0.2686927083333333 -0.00560625c0.030570833333333332 -0.0007427083333333333 0.06140520833333333 -0.0015572916666666667 0.092503125 -0.0024677083333333335l0.09415625000000001 -0.0031145833333333334c0.084453125 -0.003138541666666667 0.170990625 -0.0052229166666666665 0.25961249999999997 -0.006947916666666667l0.27211874999999996 -0.004863541666666666 0.18836041666666667 -0.004144791666666666 0.09628854166666667 -0.002803125c0.19391875 -0.006253125000000001 0.38366875 -0.0083375 0.572053125 -0.009032291666666666l0.2818458333333333 -0.00035937500000000005c0.7694697916666667 0 1.4075520833333335 0.09384479166666666 1.933054166666667 0.29090208333333334 0.46917604166666665 0.15951458333333332 0.9008333333333333 0.42226562500000003 1.2574052083333336 0.7694458333333333 0.3002697916666667 0.30029375 0.5348697916666667 0.6662572916666667 0.6850166666666667 1.0697395833333334 0.14075520833333335 0.3941145833333334 0.21581666666666668 0.7976208333333334 0.21581666666666668 1.2198864583333335 0 0.8069885416666667 -0.187665625 1.4732458333333336 -0.5630208333333334 1.9987239583333332 -0.37535520833333336 0.525478125 -0.9008333333333333 0.9195927083333333 -1.5107645833333334 1.1448010416666667 -0.61683125 0.22678958333333335 -1.2950197916666668 0.31325520833333337 -2.034613541666667 0.318765625l-0.26821354166666667 0 -0.10445833333333333 -0.0010781249999999999 -0.06689166666666667 -0.0016291666666666666 -0.03941145833333334 -0.0016291666666666666 -0.035410416666666666 -0.0021083333333333336 -0.031529166666666664 -0.0026593750000000003c-0.018759375 -0.00186875 -0.039028125 -0.003378125 -0.060878125 -0.004576041666666667l-0.04580833333333334 -0.0020125 -0.050144791666666674 -0.001365625 -0.0836625 -0.0010781249999999999 -0.16298854166666668 -0.0003354166666666667v3.0121614583333334c0.009367708333333334 0.06566979166666667 -0.037542708333333334 0.12197187500000001 -0.10323645833333334 0.13136354166666667h-1.8204260416666667c-0.07506145833333334 0 -0.11260416666666666 -0.037542708333333334 -0.11260416666666666 -0.12199583333333333Zm2.045634375 -7.947961458333334v3.152916666666667l0.11030416666666666 0.007810416666666666c0.09001145833333334 0.006157291666666667 0.17523125 0.010948958333333333 0.255659375 0.010948958333333333h0.49735104166666666c0.3659635416666667 0 0.7319270833333335 -0.05630208333333333 1.0791072916666669 -0.16890625 0.30029375 -0.084453125 0.5630208333333334 -0.2627510416666667 0.7694697916666667 -0.49732708333333336 0.1970572916666667 -0.2346 0.29090208333333334 -0.5536531250000001 0.29090208333333334 -0.9665270833333335 0.009367708333333334 -0.29090208333333334 -0.06569375000000001 -0.5817802083333334 -0.215840625 -0.8351395833333333 -0.152878125 -0.233809375 -0.366059375 -0.41591666666666666 -0.623084375 -0.521525l-0.03375729166666667 -0.013344791666666666c-0.3472041666666667 -0.14075520833333335 -0.722559375 -0.1970572916666667 -1.1072822916666667 -0.18768958333333333l-0.21694270833333335 0.0002875 -0.10196666666666666 0.0006468750000000001 -0.09734270833333333 0.0012697916666666667 -0.09252708333333333 0.002084375c-0.04501770833333334 0.0012697916666666667 -0.08816666666666667 0.0029468750000000003 -0.129303125 0.005103125 -0.020867708333333332 -0.0010302083333333333 -0.04101666666666667 -0.0018447916666666669 -0.06047083333333334 -0.0024677083333333335l-0.056206250000000006 -0.001221875c-0.009008333333333333 -0.00009583333333333334 -0.017848958333333335 -0.00016770833333333335 -0.02649791666666667 -0.00019166666666666667l-0.049689583333333336 0.0003354166666666667 -0.04525729166666667 0.0011979166666666668c-0.007163541666666667 0.0002635416666666667 -0.014135416666666666 0.0005510416666666667 -0.020939583333333334 0.0008625l-0.038453125000000005 0.0021802083333333335 -0.033805208333333336 0.0026354166666666665c-0.005246875 0.0004791666666666667 -0.010302083333333333 0.0009583333333333334 -0.01514166666666667 0.0014614583333333335l-0.026713541666666667 0.0030427083333333335 -0.011571875 0.0015572916666666667Zm6.362135416666667 0.5442374999999999h1.6421520833333334c0.088621875 0 0.160496875 0.05860208333333334 0.19193020833333335 0.13625104166666666l0.005127083333333333 0.013895833333333335c0.028151041666666664 0.07506145833333334 0.04691041666666667 0.150146875 0.05630208333333333 0.2346 0.018759375 0.09382083333333334 0.037542708333333334 0.1970572916666667 0.04691041666666667 0.290878125l0.007834375000000001 0.090778125c0.006157291666666667 0.077553125 0.010948958333333333 0.15989791666666667 0.010948958333333333 0.247034375 0.26871666666666666 -0.31349479166666666 0.588728125 -0.5756947916666666 0.9518645833333333 -0.7784302083333333l0.05218125 -0.028558333333333335c0.4316572916666667 -0.24396770833333334 0.928984375 -0.3659635416666667 1.4263114583333334 -0.3659635416666667 0.06569375000000001 -0.009391666666666666 0.12199583333333333 0.037542708333333334 0.13138750000000002 0.10321250000000001v1.8673604166666666c0 0.07506145833333334 -0.046934375 0.10321250000000001 -0.150146875 0.10321250000000001 -0.3152916666666667 -0.008744791666666666 -0.638753125 0.015189583333333333 -0.9475041666666667 0.07944583333333334l-0.06593333333333333 0.014398958333333335c-0.27211874999999996 0.05630208333333333 -0.5348697916666667 0.14075520833333335 -0.7882291666666668 0.25335937500000005 -0.17829791666666667 0.084453125 -0.3472041666666667 0.1970572916666667 -0.47856770833333334 0.3472041666666667v4.785677083333334c0 0.09382083333333334 -0.037542708333333334 0.13136354166666667 -0.12199583333333333 0.13136354166666667h-1.8485770833333333c-0.07506145833333334 0.009391666666666666 -0.14075520833333335 -0.037542708333333334 -0.150146875 -0.11260416666666666v-5.23609375c0 -0.22520833333333332 0 -0.4598083333333334 -0.009367708333333334 -0.7037760416666667l-0.005582291666666667 -0.1829697916666667 -0.0076187500000000005 -0.3659635416666667c-0.0014614583333333335 -0.060997916666666666 -0.0032343750000000003 -0.12199583333333333 -0.005582291666666667 -0.18299375 0 -0.21581666666666668 -0.018759375 -0.42226562500000003 -0.03751875 -0.6380822916666667 -0.009391666666666666 -0.046934375 0.018759375 -0.09384479166666666 0.06566979166666667 -0.10323645833333334 0 -0.008026041666666667 0.0138 -0.009176041666666667 0.023646875 -0.00345l0.004504166666666667 0.00345Z" stroke-width="1"></path></svg>