<svg xmlns="http://www.w3.org/2000/svg" fill="none" viewBox="-0.5 -0.5 24 24" id="Adobe-After-Effects--Streamline-Svg-Logos.svg" height="24" width="24"><desc>Adobe After Effects Streamline Icon: https://streamlinehq.com</desc><path fill="#00005B" d="M19.021598958333332 0.5210458333333333h-15.043197916666667C1.9135065625 0.5210458333333333 0.23958333333333334 2.1949690625 0.23958333333333334 4.259863541666667v14.480177083333334c0 2.064896875 1.6739232291666668 3.7388177083333334 3.7388177083333334 3.7388177083333334h15.043197916666667C21.086495833333334 22.478858333333335 22.760416666666668 20.804937499999998 22.760416666666668 18.740040625000002v-14.480177083333334c0 -2.064894479166667 -1.6739208333333333 -3.7388177083333334 -3.7388177083333334 -3.7388177083333334Z" stroke-width="1"></path><path fill="#99F" d="M9.286825 13.658094791666667H5.796910416666667l-0.710053125 2.2099645833333335c-0.01883125 0.07836770833333334 -0.08778333333333334 0.13363958333333334 -0.16718125 0.13608333333333333l-1.7817093750000002 -0.00011979166666666667c-0.10081666666666667 0 -0.13605937499999998 -0.055391666666666665 -0.10577604166666667 -0.16619895833333334l3.0215770833333337 -8.666088541666667 0.030211458333333333 -0.09104166666666667c0.0033541666666666668 -0.010278125 0.0067083333333333335 -0.020652083333333335 0.0100625 -0.031169791666666665l0.02014895833333333 -0.06502291666666667c0.0100625 -0.03366145833333334 0.02014895833333333 -0.06926354166666668 0.030211458333333333 -0.10790833333333334 0.039555208333333335 -0.20156145833333336 0.0598 -0.40645312499999997 0.060422916666666666 -0.6118479166666666 -0.004144791666666666 -0.029133333333333334 0.005654166666666667 -0.05850625 0.02645 -0.07930208333333334 0.020795833333333336 -0.020819791666666667 0.050168750000000005 -0.03061875 0.07930208333333334 -0.026473958333333335h2.4021583333333334c0.07031770833333333 0 0.11061562500000001 0.025180208333333336 0.12084583333333333 0.07556458333333334l3.42944375 9.618408333333333c0.030211458333333333 0.10079270833333334 0 0.151153125 -0.09061041666666667 0.15108125000000003h-1.9640322916666666c-0.06976666666666667 0.007738541666666668 -0.13445416666666668 -0.037542708333333334 -0.15105729166666665 -0.10575208333333334l-0.7705000000000001 -2.240176041666667ZM6.3408125 11.794711458333333h2.387040625l-0.03397291666666667 -0.11231666666666668 -0.054696875000000006 -0.17791458333333335 -0.07992500000000001 -0.254725 -0.15350104166666667 -0.48093958333333336 -0.146265625 -0.46222812500000005 -0.27195104166666667 -0.861134375c-0.07767291666666666 -0.246028125 -0.14983541666666667 -0.484653125 -0.21643958333333332 -0.7159229166666666l-0.077265625 -0.272334375 -0.08337499999999999 -0.298496875 -0.07616354166666667 -0.2768864583333333h-0.015117708333333335c-0.07556458333333334 0.36270520833333336 -0.1676125 0.7217447916666667 -0.2758802083333333 1.0759927083333334l-0.10201458333333334 0.32748645833333334 -0.245453125 0.7917750000000001 -0.12446354166666666 0.40326666666666666c-0.022472916666666665 0.07285729166666667 -0.04489791666666667 0.14487604166666668 -0.06725104166666666 0.21605625000000003l-0.06686770833333334 0.2110010416666667 -0.06653229166666667 0.20599375 -0.06614895833333334 0.20093854166666666 -0.06576562500000001 0.19593125c-0.032798958333333336 0.09671979166666667 -0.06545416666666667 0.19152291666666668 -0.09798958333333332 0.28445729166666667Zm11.481959375 1.0032072916666666H14.846571875c0.036440625000000004 0.29449583333333335 0.13423854166666668 0.5780427083333334 0.2870447916666667 0.8323843750000001 0.16895416666666668 0.2518739583333333 0.407890625 0.4487875 0.6873885416666667 0.5665427083333333 0.37878125 0.16389895833333334 0.7884447916666667 0.2442072916666667 1.2010791666666667 0.23541458333333334 0.3273666666666667 -0.006277083333333334 0.6535114583333334 -0.042094791666666666 0.9744333333333333 -0.10699791666666666 0.2870447916666667 -0.038740625 0.5683635416666667 -0.11207708333333334 0.8377989583333334 -0.21840416666666668 0.050264583333333335 -0.04010625 0.07556458333333334 -0.015093750000000001 0.07556458333333334 0.07556458333333334v1.4352239583333333c0.0024916666666666668 0.0391 -0.005342708333333334 0.07817604166666667 -0.02268854166666667 0.11332291666666666 -0.017297916666666666 0.027456249999999998 -0.0405375 0.050671875 -0.06799375 0.06796979166666667 -0.29885625000000005 0.13236979166666668 -0.6134052083333333 0.22607083333333333 -0.9359802083333333 0.27882708333333334 -0.43824583333333333 0.08232083333333334 -0.8836552083333333 0.12027083333333334 -1.3294958333333333 0.11329895833333334 -0.6929229166666666 0 -1.2769791666666668 -0.10395520833333334 -1.7521927083333335 -0.3119135416666667l-0.045640625000000004 -0.020436458333333334c-0.45686145833333336 -0.20127395833333334 -0.8603677083333333 -0.506503125 -1.1783666666666668 -0.8913697916666666 -0.29703541666666666 -0.36263333333333336 -0.5179791666666667 -0.7814010416666667 -0.6496541666666666 -1.2312906250000002 -0.13038125 -0.44404375 -0.19650625000000002 -0.9044510416666667 -0.19641041666666667 -1.3672541666666669 -0.001365625 -0.5053052083333334 0.07767291666666666 -1.0076395833333334 0.23421666666666668 -1.4881 0.150721875 -0.46867291666666666 0.3891072916666667 -0.9044510416666667 0.7024822916666668 -1.284166666666667 0.30908645833333337 -0.375259375 0.69560625 -0.6793145833333334 1.133109375 -0.8913458333333334 0.4430614583333333 -0.21646354166666668 0.9668625 -0.29413645833333335 1.5711635416666667 -0.29413645833333335 0.5011604166666667 -0.01265 0.9989427083333334 0.08533958333333334 1.4579125000000002 0.2870447916666667 0.3859208333333333 0.16459375 0.72565 0.4211875 0.9895510416666667 0.74735625 0.24751354166666664 0.3194125 0.43673645833333335 0.6799614583333333 0.558971875 1.0651156250000002 0.11904895833333334 0.37113854166666665 0.180190625 0.758425 0.18131666666666668 1.1481791666666668 0 0.2216625 -0.007570833333333335 0.4230802083333334 -0.02268854166666667 0.6043010416666666l-0.013392708333333333 0.15520208333333335 -0.014159375 0.14731979166666667 -0.008265625 0.07458229166666668c-0.0006708333333333334 0.005438541666666667 -0.0012937500000000002 0.010661458333333334 -0.001940625 0.015716666666666667 -0.008121875 0.068928125 -0.06655625 0.12089375000000002 -0.1359875 0.12086979166666666l-0.041400000000000006 0.0008864583333333334 -0.051654166666666675 0.00273125 -0.04015416666666667 0.0028270833333333334 -0.09398854166666666 0.00805 -0.08248854166666666 0.008145833333333335c-0.022472916666666665 0.0023239583333333337 -0.045784375 0.004528125 -0.06993437500000001 0.0066125l-0.07494166666666667 0.0058937500000000006 -0.07992500000000001 0.005198958333333334 -0.08490833333333334 0.00445625 -0.08991562500000001 0.0037614583333333332c-0.015405208333333333 0.000575 -0.03102604166666667 0.0011020833333333334 -0.04683854166666667 0.0016052083333333335l-0.09741458333333335 0.0026833333333333336c-0.09631250000000001 0.0023239583333333337 -0.1950447916666667 -0.0036895833333333338 -0.2962447916666667 -0.01106875l-0.15366875 -0.011236458333333333c-0.07776875 -0.005270833333333333 -0.15692708333333336 -0.009367708333333334 -0.23749895833333334 -0.009367708333333334ZM14.846571875 11.421656250000002l2.05735 -0.00009583333333333334 0.17520729166666665 -0.0010541666666666668 0.11916875 -0.0016770833333333334 0.07714583333333334 -0.0017489583333333335 0.0865375 -0.002994791666666667c0.07750520833333334 -0.007738541666666668 0.15232708333333334 -0.03253541666666667 0.21909895833333334 -0.07259375V11.250833333333334c-0.0030427083333333335 -0.11816250000000002 -0.023407291666666667 -0.23522291666666667 -0.060422916666666666 -0.34746770833333335 -0.16756458333333335 -0.5297906250000001 -0.6684854166666667 -0.8822895833333333 -1.223719791666667 -0.861134375 -0.5195125 -0.031409375 -1.0085020833333334 0.2471541666666667 -1.2464083333333333 0.710053125 -0.10350000000000001 0.21071354166666667 -0.17238020833333334 0.43673645833333335 -0.20395729166666665 0.669371875Z" stroke-width="1"></path></svg>