<svg xmlns="http://www.w3.org/2000/svg" fill="none" viewBox="-0.5 -0.5 24 24" id="Capacitorjs-Icon--Streamline-Svg-Logos.svg" height="24" width="24"><desc>Capacitorjs Icon Streamline Icon: https://streamlinehq.com</desc><path fill="#53B9FF" d="M3.7465562500000003 5.000008333333333 0.2671402083333333 8.483813541666667 5.632963541666667 13.865717708333333 0.239818125 19.275030208333334 3.708342708333334 22.760368749999998l5.404017708333334 -5.410821875 5.374740625 5.372153125 3.4794208333333336 -3.4838291666666668 -14.219965625 -14.2378625Z" stroke-width="1"></path><path fill="#119EFF" d="M12.601196875000001 13.865885416666668 9.112480208333334 17.34961875l5.374716666666666 5.3722489583333335L17.96659375 19.23803854166667 12.601196875000001 13.865885416666668Z" stroke-width="1"></path><path fill="#000" fill-opacity=".2" d="M12.601196875000001 13.865885416666668 9.112480208333334 17.34961875l1.3429843750000001 1.3355572916666667 2.1457322916666666 -4.819290625000001Z" stroke-width="1"></path><path fill="#53B9FF" d="m17.356159375 9.123309375000002 5.404065625 -5.410821875L19.27929479166667 0.23958333333333334 13.876834375 5.639528125000001 8.5016625 0.2669413541666667 5.022241666666667 3.7507489583333338l14.219989583333334 14.2378625 3.4794208333333336 -3.4838291666666668 -5.365492708333333 -5.381472916666667Z" stroke-width="1"></path><path fill="#119EFF" d="m10.388045833333335 9.123453125000001 3.4887885416666666 -3.4837812500000003L8.5016625 0.2670755208333333 5.022241666666667 3.75086875l5.365804166666667 5.372584375000001Z" stroke-width="1"></path><path fill="#000" fill-opacity=".2" d="m10.388069791666666 9.123189583333334 3.4887885416666666 -3.4837812500000003 -1.34334375 -1.3359166666666666 -2.145444791666667 4.819697916666667Z" stroke-width="1"></path></svg>