<?xml version="1.0" encoding="iso-8859-1"?>
<!-- Generator: Adobe Illustrator 22.0.1, SVG Export Plug-In . SVG Version: 6.00 Build 0)  -->
<svg version="1.1" id="Layer_1" xmlns="http://www.w3.org/2000/svg" xmlns:xlink="http://www.w3.org/1999/xlink" x="0px" y="0px"
	 viewBox="0 0 2048 2048" style="enable-background:new 0 0 2048 2048;" xml:space="preserve">
<g>
	<path style="fill:#BBECFF;" d="M576.257,1334.528C399.388,1334.528,256,1191.14,256,1014.257
		c0-88.441,35.854-168.502,93.797-226.459C407.755,729.84,487.829,694,576.257,694h18.995
		c0-236.797,191.951-428.748,428.748-428.748S1452.748,457.204,1452.748,694h18.995C1648.612,694,1792,837.374,1792,1014.257
		c0,88.441-35.854,168.502-93.797,226.473c-57.957,57.943-138.032,93.797-226.459,93.797H576.257z"/>
	<g>
		<g>
			<rect x="682.672" y="1110.458" style="fill:#465A65;" width="682.657" height="461.483"/>
		</g>
		<path style="fill:#CFD8DD;" d="M1485.836,1469.93H562.164c-22.091,0-40-17.909-40-40v-190.802c0-22.091,17.909-40,40-40h923.672
			c22.091,0,40,17.909,40,40v190.802C1525.836,1452.022,1507.927,1469.93,1485.836,1469.93z"/>
		<path style="fill:#CFD8DD;" d="M1485.836,1157.113H562.164c-22.091,0-40-17.909-40-40V926.311c0-22.091,17.909-40,40-40h923.672
			c22.091,0,40,17.909,40,40v190.802C1525.836,1139.204,1507.927,1157.113,1485.836,1157.113z"/>
		<g>
			<g>
				<g>
					<circle style="fill:#465A65;" cx="1312.478" cy="1021.712" r="47.818"/>
				</g>
				<g>
					<circle style="fill:#465A65;" cx="1174.716" cy="1021.712" r="47.818"/>
				</g>
			</g>
			<g>
				<g>
					<path style="fill:#465A65;" d="M977.547,1058.358H687.704c-20.239,0-36.646-16.407-36.646-36.646
						c0-20.239,16.407-36.646,36.646-36.646h289.843c20.239,0,36.646,16.407,36.646,36.646
						C1014.193,1041.951,997.786,1058.358,977.547,1058.358z"/>
				</g>
			</g>
		</g>
		<g>
			<g>
				<g>
					<circle style="fill:#465A65;" cx="1312.478" cy="1334.529" r="47.818"/>
				</g>
				<g>
					<circle style="fill:#465A65;" cx="1174.716" cy="1334.529" r="47.818"/>
				</g>
			</g>
			<g>
				<g>
					<path style="fill:#465A65;" d="M977.547,1371.175H687.704c-20.239,0-36.646-16.407-36.646-36.646s16.407-36.646,36.646-36.646
						h289.843c20.239,0,36.646,16.407,36.646,36.646S997.786,1371.175,977.547,1371.175z"/>
				</g>
			</g>
		</g>
		<g>
			<path style="fill:#CFD8DD;" d="M1485.836,1782.748H562.164c-22.091,0-40-17.909-40-40v-190.802c0-22.091,17.909-40,40-40h923.672
				c22.091,0,40,17.909,40,40v190.802C1525.836,1764.839,1507.927,1782.748,1485.836,1782.748z"/>
			<g>
				<g>
					<g>
						<circle style="fill:#465A65;" cx="1312.478" cy="1647.346" r="47.818"/>
					</g>
					<g>
						<circle style="fill:#465A65;" cx="1174.716" cy="1647.346" r="47.818"/>
					</g>
				</g>
				<g>
					<g>
						<path style="fill:#465A65;" d="M977.547,1683.993H687.704c-20.239,0-36.646-16.407-36.646-36.646s16.407-36.646,36.646-36.646
							h289.843c20.239,0,36.646,16.407,36.646,36.646S997.786,1683.993,977.547,1683.993z"/>
					</g>
				</g>
			</g>
		</g>
	</g>
</g>
</svg>
