<svg xmlns="http://www.w3.org/2000/svg" fill="none" viewBox="-0.5 -0.5 24 24" id="Docker-Icon--Streamline-Svg-Logos.svg" height="24" width="24"><desc>Docker Icon Streamline Icon: https://streamlinehq.com</desc><path fill="#2396ED" d="M22.295553125 9.575714583333335c-0.5071260416666666 -0.35187604166666664 -1.6692968750000001 -0.4838385416666667 -2.5778927083333336 -0.3078885416666667 -0.10565625000000001 -0.879678125 -0.5916510416666667 -1.6494114583333335 -1.4368770833333333 -2.331169791666667l-0.48599479166666676 -0.35187604166666664 -0.33807604166666666 0.5058322916666667c-0.4226010416666667 0.6597645833333333 -0.6339135416666667 1.5834302083333334 -0.5705197916666667 2.4631083333333335 0.02113125 0.3078885416666667 0.1267875 0.857684375 0.4437322916666667 1.3415229166666667 -0.2958135416666667 0.17592604166666667 -0.9085958333333334 0.3958635416666667 -1.7115593750000002 0.3958635416666667H0.34117145833333334l-0.042260104166666666 0.17592604166666667c-0.14791323958333333 0.879678125 -0.14791323958333333 3.6287052083333333 1.5847718750000002 5.7399375C3.193765625 18.812394791666666 5.137744791666667 19.626115625 7.69450625 19.626115625c5.536147916666667 0 9.63541875 -2.6610520833333333 11.558290625 -7.477323958333334 0.7606770833333333 0.021993750000000003 2.3877114583333334 0 3.21180625 -1.6494114583333335 0.02113125 -0.043987500000000006 0.06336979166666667 -0.13193854166666666 0.2112885416666667 -0.46182083333333335L22.760416666666668 9.861609375l-0.46486354166666666 -0.2858947916666667ZM12.554478125000001 3.3739322916666667h-2.324317708333333v2.1992072916666667h2.324317708333333v-2.1992072916666667Zm0 2.6390583333333333h-2.324317708333333v2.1992072916666667h2.324317708333333v-2.1992072916666667Zm-2.7469427083333335 0h-2.324317708333333v2.1992072916666667h2.324317708333333v-2.1992072916666667Zm-2.7469187500000003 0h-2.3243416666666668v2.1992072916666667h2.3243416666666668v-2.1992072916666667ZM4.313673958333333 8.652048958333335H1.9893346875v2.1992072916666667h2.3243392708333332v-2.1992072916666667Zm2.7469427083333335 0h-2.3243416666666668v2.1992072916666667h2.3243416666666668v-2.1992072916666667Zm2.7469187500000003 0h-2.324317708333333v2.1992072916666667h2.324317708333333v-2.1992072916666667Zm2.7469427083333335 0h-2.324317708333333v2.1992072916666667h2.324317708333333v-2.1992072916666667Zm2.7469427083333335 0h-2.3243416666666668v2.1992072916666667h2.3243416666666668v-2.1992072916666667Z" stroke-width="1"></path></svg>