<svg xmlns="http://www.w3.org/2000/svg" fill="none" viewBox="-0.5 -0.5 24 24" id="Figma--Streamline-Svg-Logos.svg" height="24" width="24"><desc>Figma Streamline Icon: https://streamlinehq.com</desc><path fill="#0ACF83" d="M7.746495833333333 22.760440625c2.0719166666666666 0 3.75345625 -1.6815635416666668 3.75345625 -3.7534802083333334V15.253480208333334H7.746495833333333c-2.0719166666666666 0 -3.7534802083333334 1.6815635416666668 -3.7534802083333334 3.7534802083333334s1.6815635416666668 3.7534802083333334 3.7534802083333334 3.7534802083333334Z" stroke-width="1"></path><path fill="#A259FF" d="M3.993015625 11.499976041666667c0 -2.0719166666666666 1.6815635416666668 -3.75345625 3.7534802083333334 -3.75345625h3.75345625v7.506936458333334H7.746495833333333c-2.0719166666666666 0 -3.7534802083333334 -1.6815635416666668 -3.7534802083333334 -3.7534802083333334Z" stroke-width="1"></path><path fill="#F24E1E" d="M3.993015625 3.9930635416666664C3.993015625 1.9211396875000002 5.674579166666667 0.23958333333333334 7.746495833333333 0.23958333333333334h3.75345625v7.506936458333334H7.746495833333333c-2.0719166666666666 0 -3.7534802083333334 -1.6815395833333335 -3.7534802083333334 -3.75345625Z" stroke-width="1"></path><path fill="#FF7262" d="M11.499880208333334 0.23958333333333334h3.7534802083333334c2.0719166666666666 0 3.75345625 1.6815563541666667 3.75345625 3.7534802083333334 0 2.0719166666666666 -1.6815395833333335 3.75345625 -3.75345625 3.75345625H11.499880208333334V0.23958333333333334Z" stroke-width="1"></path><path fill="#1ABCFE" d="M19.00681666666667 11.499976041666667c0 2.0719166666666666 -1.6815395833333335 3.7534802083333334 -3.75345625 3.7534802083333334s-3.7534802083333334 -1.6815635416666668 -3.7534802083333334 -3.7534802083333334 1.6815635416666668 -3.75345625 3.7534802083333334 -3.75345625 3.75345625 1.6815395833333335 3.75345625 3.75345625Z" stroke-width="1"></path></svg>