<svg xmlns="http://www.w3.org/2000/svg" fill="none" viewBox="-0.5 -0.5 24 24" id="Flask--Streamline-Svg-Logos.svg" height="24" width="24"><desc>Flask Streamline Icon: https://streamlinehq.com</desc><path fill="#ffffff" d="M7.9729020833333335 14.166826041666669c-0.66771875 -0.525334375 -1.3802635416666666 -1.028746875 -1.8670729166666669 -1.73808125 -1.0246260416666666 -1.2508406250000002 -1.8132864583333335 -2.6987385416666667 -2.3524927083333336 -4.220595833333333 -0.32604895833333336 -0.989646875 -0.4376229166666667 -2.0506177083333337 -0.8581395833333333 -3.0018593750000004 -0.4393479166666667 -0.6911260416666667 0.07566041666666667 -1.4460770833333334 0.8325760416666667 -1.6656312500000001 0.33673437500000003 -0.06490312499999999 0.9292239583333334 -0.38283020833333337 0.21404375 -0.15536979166666667 -0.641340625 0.47030208333333334 -0.7031291666666667 -0.427296875 -0.04561666666666667 -0.48415 0.44873958333333336 -0.0595125 0.6139322916666667 -0.426721875 0.46031145833333337 -0.7572630208333334 -0.4818739583333333 -0.3143692708333333 1.1680406250000002 -0.6592351041666668 0.3377645833333333 -1.12815C3.82993125 0.08282132291666668 5.9038125 -0.09671979166666667 5.392014583333333 0.9628710416666666c-0.12233125000000002 0.8146983333333333 1.449646875 -0.14961739583333333 1.08459375 0.7913102083333333 0.37089895833333336 0.45195 1.388409375 0.10307114583333334 1.3628458333333333 0.7367427083333333 0.5401166666666667 0.03713541666666667 0.72550625 0.49126562500000004 1.232009375 0.5262447916666667 0.5257895833333334 0.2373072916666667 1.477965625 0.42408645833333336 1.656575 1.0161208333333334 -0.5211895833333333 0.41251458333333335 -1.7277552083333334 -0.8521739583333334 -1.7859979166666669 0.28984791666666665 0.15764583333333335 1.687409375 0.11739583333333334 3.4256104166666668 0.7345625 5.032423958333333 0.291884375 0.9728041666666666 0.9999729166666667 1.7385364583333334 1.6390135416666667 2.4963864583333337 0.6117760416666668 0.7419895833333333 1.4403510416666667 1.2646885416666667 2.2849781250000003 1.7044916666666667 0.74074375 0.3493364583333333 1.5392750000000002 0.5807979166666667 2.346742708333333 0.7264166666666667 0.32734270833333334 -0.25038854166666663 0.9055052083333334 -1.1814572916666668 1.4160333333333335 -0.7891395833333333 0.024653125 0.44162395833333334 -1.013365625 0.9225875 -0.04870729166666667 0.8737364583333334 0.5669260416666666 -0.17103854166666665 0.9597229166666666 0.4379822916666667 1.426359375 -0.11155000000000001 0.4299322916666667 0.5092822916666667 1.7869083333333335 -0.32513854166666667 1.4810322916666667 0.7157552083333333 -0.4137604166666667 0.2669197916666667 -1.0170552083333333 0.10560833333333335 -1.4312947916666667 0.4729375 -0.68295625 -0.3413104166666667 -1.2267385416666667 0.304965625 -1.983079166666667 0.22345937500000002 -0.8396916666666667 0.15041041666666669 -1.6942854166666665 0.210953125 -2.545572916666667 0.21219895833333335 -1.396890625 -0.11016041666666666 -2.8232500000000003 -0.15671145833333333 -4.1520270833333335 -0.643065625 -0.7487697916666668 -0.21758958333333334 -1.4792114583333333 -0.6439760416666667 -2.137179166666667 -1.0703625Zm1.1796364583333334 0.5114624999999999c0.7308729166666668 0.3157229166666667 1.4457177083333335 0.6489114583333333 2.246884375 0.7496802083333334 1.2710135416666668 0.17645312500000002 2.583642708333333 0.44873958333333336 3.8591125000000006 0.20062708333333334 -0.5772520833333334 -0.26059479166666666 -1.1742458333333334 0.10124791666666666 -1.7493177083333333 -0.1863 -0.6896166666666667 0.1482541666666667 -1.4299052083333335 -0.038045833333333334 -2.1313333333333335 -0.12990208333333333 -0.7971656250000001 -0.3550625 -1.6578447916666668 -0.59915 -2.404434375 -1.0604916666666668 -0.93336875 -0.3407354166666667 0.48232916666666664 0.43714375 0.7344427083333334 0.500321875 0.5830979166666668 0.3308885416666667 -0.641340625 -0.16979270833333335 -0.8142479166666667 -0.307265625 -0.4885104166666667 -0.27413125000000005 -0.550778125 -0.21679895833333335 -0.048252083333333334 0.06133333333333334 0.10110416666666666 0.05917708333333333 0.2010822916666667 0.12142083333333334 0.30714583333333334 0.171996875Zm-1.3910447916666666 -0.9830104166666667c0.7085197916666667 0.262415625 -0.0031145833333333334 -0.4980458333333334 -0.32734270833333334 -0.45413020833333334 -0.14375 -0.249478125 -0.5495083333333334 -0.40712395833333337 -0.26335 -0.5410270833333334 -0.5145291666666667 0.17872916666666666 -0.5391822916666668 -0.6794104166666667 -0.7809697916666667 -0.5566239583333333 -0.544596875 -0.17197291666666667 -0.2118875 -0.7811135416666667 -0.8607989583333334 -1.1554385416666668 -0.059153125 -0.3941625 -0.6444552083333334 -0.7358322916666666 -0.8307552083333333 -1.3301666666666667 -0.082440625 -0.3045104166666667 -0.6615135416666666 -1.1782468750000001 -0.30587604166666665 -0.36505312500000003 0.30266562500000005 0.7828385416666667 0.8352114583333333 1.4537677083333334 1.2785604166666666 2.123307291666667 0.34394583333333334 0.6376989583333335 0.7506145833333334 1.3046031249999999 1.3771729166666666 1.7023354166666669 0.21140833333333334 0.2028072916666667 0.41514999999999996 0.5131635416666667 0.713359375 0.5767968750000001Zm-2.040315625 -2.2406072916666666c0.12944687500000002 0.23148541666666667 0.024533333333333334 -0.10706979166666668 0 0ZM8.610241666666667 14.009635416666667c0.15671145833333333 -0.07026979166666666 -0.225759375 -0.088621875 0 0Zm0.38419583333333335 0.140228125c-0.03979479166666667 -0.19353541666666665 -0.17554270833333335 0.10833958333333334 0 0Zm0.4815145833333333 0.20062708333333334c0.22885000000000003 -0.21816458333333333 -0.3533375 -0.13756875000000002 0 0Zm0.824909375 0.45985625c0.13929375000000002 -0.2055625 -0.44564895833333334 -0.07738541666666668 0 0Zm-1.5840052083333336 -1.1042875c0.3555416666666667 -0.230215625 -0.45997604166666667 -0.003210416666666667 0 0Zm0.3609322916666667 0.17999895833333332c-0.010326041666666667 -0.12142083333333334 -0.12853645833333333 0.05455312500000001 0 0Zm1.8043500000000001 1.1263052083333334c0.29015937500000005 0.183209375 1.6942854166666665 0.40127812500000004 0.8151583333333334 0.07520520833333334 -0.14743958333333332 0.03095416666666667 -1.6302208333333335 -0.41960625 -0.8151583333333334 -0.07520520833333334Zm-2.864410416666667 -2.2311916666666667c-0.028198958333333333 -0.12175625 -0.45058437500000004 -0.1348375 0 0Zm0.8396916666666667 0.4900197916666667c0.2189791666666667 -0.15271041666666665 -0.453675 -0.11787500000000001 0 0Zm0.7066989583333334 0.43302291666666665c0.31390208333333336 -0.11821041666666668 -0.5087072916666667 -0.11866562500000001 0 0Zm-1.8886114583333335 -1.2951875c0.3403760416666667 0.26105 1.3731479166666667 0.03358958333333333 0.521309375 -0.155825 -0.38740625 -0.20647291666666667 -1.2606875 -0.347946875 -0.6654427083333333 0.12451145833333335l0.14413333333333334 0.031313541666666674Zm2.3673947916666664 1.4448072916666668c0.1419291666666667 -0.24145208333333334 -0.5948135416666667 -0.1380479166666667 0 0Zm-0.7193250000000001 -0.5715260416666667c0.8321447916666667 0.23515104166666667 -0.69991875 -0.5267 -0.20544270833333336 -0.08689687500000001l0.10972916666666667 0.049737500000000004 0.09571354166666668 0.037159375Zm1.4421958333333333 0.8335104166666667c0.7882052083333333 0.007546875000000001 -0.7120895833333334 -0.10881875 0 0ZM7.3723625 11.953052083333333c-0.03095416666666667 -0.14686458333333333 -0.19432604166666667 0.012146875000000001 0 0Zm4.726667708333333 2.9106020833333335c0.020963541666666665 -0.2650510416666667 -0.25716875 0.19756041666666668 0 0Zm-3.381359375 -2.0869625000000003c-0.047940625 -0.13974895833333334 -0.24626770833333336 -0.005845833333333334 0 0Zm-1.2705583333333335 -0.9158072916666666c0.45240520833333336 -0.02728854166666667 -0.6198020833333334 -0.19926145833333334 0 0Zm-1.5052302083333335 -0.9728041666666666c-0.056397916666666666 -0.21715833333333334 -0.49219999999999997 -0.3900416666666667 0 0Zm3.9514 2.5076229166666666c-0.038980208333333335 0.020508333333333333 -0.08277604166666666 -0.0945875 0 0Zm2.4591072916666668 1.5092312500000002c-0.007570833333333335 -0.144684375 -0.13390312499999998 0.05457708333333334 0 0ZM9.67566875 13.170854166666667c0.04437083333333334 -0.1863 -0.3860166666666667 -0.05651770833333333 0 0Zm-1.8322135416666667 -1.1612843750000001c0.3368541666666667 -0.035865625 -0.5396375000000001 -0.22758020833333334 0 0Zm3.0992020833333336 1.9257708333333334c0.5248791666666667 -0.2078625 -0.5114385416666667 -0.10122395833333334 0 0Zm-1.6118447916666667 -1.0940812500000001c0.6045406249999999 0.07784062500000001 -0.7196604166666667 -0.41160416666666666 -0.13299270833333335 -0.043915625l0.13299270833333335 0.043915625Zm2.1012895833333336 1.2919770833333333c0.5647697916666666 -0.3371895833333333 0.3784697916666667 0.7905052083333334 0.958021875 0.09537812500000001 0.57140625 -0.41730625000000005 -0.49356562499999995 0.51591875 0.21049791666666667 0.07441458333333334 0.5096177083333333 -0.3408552083333334 1.2619333333333334 0.161646875 1.7371708333333333 0.32513854166666667 0.3416458333333333 -0.016627083333333334 0.6740197916666667 0.29557395833333333 1.0246020833333334 0.10560833333333335 0.6744989583333334 -0.18184375 -1.319265625 -0.26955520833333335 -0.7966864583333333 -0.591603125 -0.6171666666666668 0.17966354166666668 -1.0729979166666668 -0.21404375 -1.3767177083333333 -0.6094760416666667 -0.692371875 -0.159921875 -1.4926281250000002 -0.5137385416666667 -1.8383947916666667 -1.126784375 -0.14101875 -0.22973645833333334 0.20338229166666666 0.03267916666666667 -0.12175625 -0.3434666666666667 -0.41699479166666664 -0.37089895833333336 -0.6251927083333334 -0.79235 -0.9051697916666667 -1.2432697916666668 -0.3345541666666667 -0.17827395833333334 -0.3739895833333333 -0.7036083333333333 -0.4075791666666667 -0.017417708333333334 0.0027552083333333335 -0.4331666666666667 -0.40391354166666665 -0.7247156250000001 -0.5033166666666666 -0.60375 -0.0018208333333333334 -0.41699479166666664 0.43532291666666667 -0.2078625 0.12944687500000002 -0.5163739583333333 -0.06581354166666667 -0.4322322916666667 -0.2826125 -0.882696875 -0.34761145833333335 -1.370871875 -0.101128125 -0.23515104166666667 -0.014327083333333334 -0.7389229166666668 -0.34567083333333337 -0.206496875 -0.12048645833333334 0.5629489583333334 -0.039890625000000006 -0.6914375 0.14777500000000002 -0.2781322916666667 0.24626770833333336 -0.42178645833333334 -0.08874166666666668 -0.37214479166666664 -0.10213437500000001 -0.31390208333333336 0.16037708333333334 -0.355996875 0.10167916666666667 -0.8612541666666668 -0.042094791666666666 -0.6686531250000001 0.08553125 -0.3775354166666667 0.13529270833333334 -1.3892 -0.12760208333333334 -1.20965625 0.15937083333333335 -0.39497708333333337 0.30233020833333335 -1.80665 -0.3901375 -1.2682583333333333 -0.2803364583333333 0.004025 -0.7662114583333334 0.101703125 -0.9955166666666666 0.21588854166666668 0.7196604166666667 0.39679791666666664 -0.07256979166666667 0.14331875 -0.3659635416666667 0.08014062500000001 -0.038045833333333334 0.36723333333333336 -0.3282291666666667 0.20865312500000002 -0.6909822916666667 0.21222291666666668 0.5795520833333334 0.071659375 -0.28215729166666664 0.5925135416666667 -0.6139562500000001 0.3901375 -0.43177708333333337 0.20604166666666668 0.37214479166666664 0.72105 0.008481250000000001 0.8803968750000001 0.04482604166666666 0.23963125000000002 -0.6610583333333333 -0.08677708333333334 -0.60590625 0.4676666666666667 -0.418815625 -0.17657291666666666 -0.057332291666666674 0.6573927083333334 0.15225520833333334 0.3752354166666667 0.7125447916666667 0.19308020833333334 0.5015916666666667 0.6324041666666668 0.5194645833333333 1.0501895833333335 -0.11603020833333334 0.24317708333333332 -0.5732510416666667 -0.5718614583333334 -0.101703125 -0.5342708333333334 -0.37214479166666664 -0.60418125 -0.4114604166666667 -0.21850000000000003 -0.7205708333333334 0.06226770833333334 -0.07163541666666666 0.020172916666666665 0.7882291666666668 0.39943333333333336 0.24856770833333336 0.5866677083333334 0.47475833333333334 0.07348020833333332 0.4886302083333333 0.48908541666666666 0.5853979166666667 0.7519802083333333 0.2852479166666667 0.297275 0.22655 -0.3283489583333334 0.568315625 0.029109375 -0.21634375 -0.318478125 -1.1447770833333333 -0.8971197916666667 -0.397253125 -0.7116104166666667 -0.004025 -0.32022708333333333 -0.13529270833333334 -0.5786416666666667 0.09401250000000001 -0.5724604166666667 0.227125 -0.4106697916666667 -0.23778645833333337 1.0130541666666666 0.2736760416666667 0.4909302083333334 0.14147395833333334 -0.061788541666666676 0.17688437499999998 -0.411125 0.43129791666666667 0.033134375 0.3694135416666667 0.3636635416666667 0.1334479166666667 0.6269177083333333 -0.38786145833333335 0.29372916666666665 0.09310208333333334 0.31665729166666673 0.6973072916666666 0.42947708333333334 0.5835770833333334 0.9244322916666666 0.12036666666666666 0.43532291666666667 0.28879375 0.274921875 0.43565833333333337 0.24981354166666667 0.11511979166666667 0.4228166666666667 0.18057395833333334 0.11200520833333334 0.18596458333333335 -0.08953229166666667 0.5270354166666668 0.112915625 0.4034583333333333 0.4245416666666667 0.568675 0.6422510416666667 0.36320833333333336 0.16385104166666667 -0.51994375 -1.1111875 0.10352395833333333 -0.38338125 0.6560270833333334 0.5925135416666667 0.24626770833333336 0.8396916666666667 -0.34258020833333336 0.7447687500000001 0.37262395833333334 -0.030043750000000004 0.4925354166666667 0.5038916666666667 0.9588125 0.48508437500000007 0.42502083333333335 0.20235208333333335 0.713 0.9789854166666667 -0.019717708333333334 0.6555479166666668 -0.25395833333333334 -0.22928125 -1.1537135416666668 -0.51189375 -0.4186958333333334 -0.07611562499999999 0.6780447916666666 0.3143572916666667 1.2172270833333332 0.502046875 1.871529166666667 0.8966645833333333 0.4680020833333334 0.33409895833333336 0.6703541666666667 0.7169052083333334 0.8477177083333334 0.7926854166666667 -0.39358750000000003 0.18802500000000003 -1.1858177083333332 -0.150075 -0.597425 -0.2534791666666667 -0.36723333333333336 -0.06672395833333335 -0.7800833333333334 -0.25256875 -0.42856666666666665 0.20465208333333332 0.2991197916666667 0.2499333333333333 1.0591260416666668 0.22345937500000002 1.1957843750000001 0.2516583333333333 -0.11555104166666667 0.25438958333333334 -0.31390208333333336 0.27458645833333334 0.0044802083333333334 0.29430416666666664 -0.35518229166666665 0.189390625 0.11418541666666668 0.2189791666666667 0.14686458333333333 0.3268635416666667Zm-0.7264166666666667 -2.0515520833333336c-0.21634375 -0.22619062500000003 -0.27228645833333337 -0.6493666666666666 -0.038525000000000004 -0.2813427083333333 0.12003125 0.04839583333333334 0.3838604166666667 0.6920364583333334 0.038525000000000004 0.2813427083333333Zm2.366029166666667 1.5029541666666668c0.13481354166666668 -0.008936458333333334 0.004001041666666667 0.10249375000000001 0 0Zm-2.7072197916666667 -2.057397916666667c0.07784062500000001 0.263709375 -0.008601041666666667 -0.341765625 0 0Zm-0.23515104166666667 -0.3162020833333334c0.34258020833333336 0.148709375 -0.27228645833333337 -0.5253104166666667 0 0Zm-2.850179166666667 -1.9669072916666668c0.159921875 -0.04266979166666667 0.07887083333333333 0.2730770833333333 0 0Zm2.268446875 1.2292541666666668c0.11509583333333334 0.30911041666666667 0.09801354166666668 -0.36859895833333334 0 0Zm-1.602453125 -1.114278125c0.23606145833333333 0.1909 -0.11281979166666667 -0.2032625 0 0Zm1.3748729166666667 0.44071354166666665c-0.25750416666666665 -0.5767968750000001 0.1827541666666667 -0.3152916666666667 0.057332291666666674 0.09446770833333333l-0.057332291666666674 -0.09446770833333333Zm-2.3713 -1.5813458333333332c-0.11509583333333334 -0.18941458333333333 -0.3054208333333333 -0.7447687500000001 -0.24408749999999999 -0.9144656250000001 0.05503229166666666 0.2763114583333333 0.5871229166666667 1.1885729166666668 0.26059479166666666 0.3780145833333334 -0.360453125 -0.6794104166666667 0.431321875 0.22024895833333336 0.512828125 0.3900416666666667 0.03806979166666667 0.168403125 -0.22264479166666667 -0.04609583333333333 -0.046191666666666666 0.3493364583333333 -0.32195208333333336 -0.4501291666666667 -0.18986979166666668 0.24854375000000004 -0.48314375 -0.20292708333333334Zm-0.7327177083333334 -0.5051614583333333c0.16749270833333335 0.301875 0.030043750000000004 -0.4402583333333333 0 0Zm0.32961875 0.11373020833333335c0.26644062500000004 0.4630666666666667 0.157190625 -0.3322541666666667 0 0Zm-0.793140625 -0.6134770833333334c-0.272765625 -0.2714958333333333 -0.47030208333333334 -0.521309375 0.012937500000000001 -0.16842708333333334 0.18584479166666665 0.007115625 -0.4137604166666667 -0.568315625 0.04482604166666666 -0.1827541666666667 0.4818739583333333 0.08783125 0.23778645833333337 0.7905052083333334 -0.05776354166666667 0.35118125Zm0.416515625 -0.01078125c0.15855625 -0.157190625 0.08414166666666667 0.15455520833333333 0 0Zm0.25659375 0.08198541666666667c0.2915489583333334 0.18893541666666666 -0.24054166666666668 -0.4501291666666667 0 0Zm-0.5096177083333333 -0.486809375c-0.7931645833333334 -0.7063635416666667 0.9964031250000001 0.36893437500000004 0.12942291666666667 0.13069270833333332l-0.12942291666666667 -0.13069270833333332Zm2.2728072916666666 1.3201760416666668c-0.343490625 -0.2055625 -0.09137708333333334 -1.4487125 0.02601875 -0.5986947916666666 0.3336197916666667 -0.10800416666666666 -0.018447916666666668 0.4393479166666667 0.23009583333333336 0.4339572916666667 -0.03886041666666667 0.345215625 -0.15041041666666669 0.46936770833333336 -0.2561145833333333 0.1647375Zm0.8406020833333333 0.4971354166666667c0.07074895833333333 0.25623437499999996 0.03358958333333333 -0.37480416666666666 0 0Zm-0.14595416666666666 -0.144684375c0.03761458333333333 -0.15982604166666667 0.003569791666666667 0.18860000000000002 0 0Zm-2.8121093750000004 -1.9046875c-0.5096177083333333 -0.7031291666666667 1.4810322916666667 0.7111791666666667 0.3265041666666667 0.17829791666666667 -0.12048645833333334 -0.03176875 -0.2659854166666667 -0.043005208333333336 -0.3265041666666667 -0.17829791666666667Zm1.6189604166666667 0.8581635416666668c0.10754895833333335 0.09801354166666668 -0.04827604166666667 -0.5920583333333334 0 0Zm1.22891875 0.7885645833333333c0.094946875 -0.3371895833333333 0.007235416666666667 0.22310000000000002 0 0Zm-2.7694635416666666 -1.9150135416666667c0.3027854166666667 -0.06487916666666667 1.2548416666666666 0.5316354166666667 0.3806260416666667 0.17027187500000002 -0.097103125 -0.10754895833333335 -0.3045104166666667 -0.05869791666666667 -0.3806260416666667 -0.17027187500000002Zm2.600605208333333 1.296121875c0.03231979166666667 -0.6054510416666666 0.18102916666666669 -0.3613635416666667 0.001365625 0.08689687500000001l-0.001365625 -0.08689687500000001Zm-2.375325 -1.5069552083333335c0.12360104166666668 -0.18102916666666669 -0.32789375000000004 -0.8182489583333333 0.06490312499999999 -0.228490625 0.16979270833333335 0.1348375 0.49126562500000004 0.2257354166666667 0.20738333333333334 0.2826125 0.4464635416666667 0.3937072916666667 -0.10879479166666667 0.10661458333333335 -0.27228645833333337 -0.054121875Zm2.2467885416666666 1.3180197916666667c0.08519583333333335 -0.6897364583333333 0.075325 0.40391354166666665 0 0Zm-2.5047479166666666 -1.9549041666666667c0.09446770833333333 -0.04034583333333333 0.050096875000000006 0.12578125 0 0Zm0.5862125 0.34888125c0.2781322916666667 0.35290625000000003 0.150865625 -0.31665729166666673 0 0Zm1.6530052083333333 0.9193770833333335c0.031313541666666674 0.17690833333333333 -0.001365625 -0.12130104166666666 0 0Zm-0.09583333333333334 -0.21174375c0.21358854166666666 0.299575 -0.22930520833333334 -0.566159375 0 0Zm-0.14068333333333335 -0.3713541666666667c0.13081250000000003 0.2938489583333333 -0.038405208333333336 -0.23378541666666666 0 0Zm0.22930520833333334 -0.37262395833333334c-0.15764583333333335 -0.277221875 0.19890208333333334 -1.2226177083333334 0.23881666666666668 -0.6362854166666667 -0.166246875 0.4567416666666667 -0.047940625 0.7120895833333334 0.06751458333333334 0.09937916666666667 0.21416354166666668 -0.48185000000000006 -0.046071875 0.9517208333333333 -0.30633125 0.53690625Zm0.23560625000000002 -1.4057072916666669c0.06854479166666667 -0.08426145833333334 0.015237500000000001 0.10158333333333333 0 0Zm-0.39361145833333333 7.753635416666667c0.012051041666666666 0.0514625 -0.09319791666666667 -0.08153020833333334 0 0Zm0.8105822916666667 0.409759375c0.45091979166666674 0.11603020833333334 0.44873958333333336 -0.06993437500000001 0.04116041666666667 -0.125421875 -0.2189791666666667 -0.20374166666666668 -0.9108958333333333 -0.4200854166666667 -0.2915489583333334 -0.025108333333333337 0.04080104166666667 0.10397916666666666 0.17024791666666667 0.10122395833333334 0.25038854166666663 0.15053020833333333Zm-1.6006322916666669 -1.0632708333333334c0.24811250000000004 0.185509375 0.9355489583333334 0.5248791666666667 0.35381666666666667 0.07086875000000001 0.19617083333333332 -0.228059375 -0.37535520833333336 -0.3493364583333333 -0.18584479166666665 -0.5020708333333334 -0.48232916666666664 -0.29521458333333334 -0.38074583333333334 -0.268740625 -0.04252604166666667 -0.259325 -0.5795520833333334 -0.2593489583333333 0.08368645833333334 -0.23963125000000002 0.052396875 -0.37262395833333334 -0.22345937500000002 -0.04389166666666667 -1.1102770833333333 -0.3941625 -0.5885125 0.028678125000000002 -0.5302458333333334 -0.27013020833333334 -0.12633229166666668 0.10076875 -0.28661354166666664 0.061788541666666676 -0.5424166666666667 -0.14777500000000002 0.482784375 0.4129697916666667 -0.08598645833333333 0.2736760416666667 0.31081145833333335 0.24626770833333336 0.83705625 0.6314937500000001 0.13114791666666667 0.26059479166666666 -0.09262291666666667 0.13390312499999998 0.5052572916666668 0.3368302083333333 0.6521218750000001 0.4384135416666667Zm0.8477416666666667 0.48726458333333333c1.0305677083333333 0.33191875 -0.5056166666666666 -0.4062135416666667 0 0Zm4.339692708333333 2.628923958333333c0.013416666666666667 -0.20465208333333332 -0.140659375 0.17460833333333334 0 0Zm0.4461041666666667 0.187665625c0.23778645833333337 -0.230215625 0.009870833333333334 0.36723333333333336 0.3940666666666667 -0.056397916666666666 0.004001041666666667 -0.30324062500000004 -0.011595833333333333 -0.48232916666666664 -0.441528125 -0.11385 -0.11878541666666667 0.06593333333333333 -0.17151770833333332 0.34485625000000003 0.04746145833333334 0.17024791666666667Zm-7.080526041666666 -4.446666666666666c-0.073025 -0.28709270833333334 -0.51189375 -0.2858229166666667 0 0Zm0.476028125 0.3120572916666667c-0.17690833333333333 -0.29327395833333336 -0.6310385416666667 -0.26553020833333335 0 0Zm2.709975 1.6342218750000002c0.264715625 0.23515104166666667 1.215046875 0.17242812500000002 0.3211375 0.029133333333333334 -0.13220208333333333 -0.195715625 -0.8401468750000001 -0.148709375 -0.3211375 -0.029133333333333334Zm3.7247302083333333 2.3006708333333337c0.40712395833333337 -0.341765625 -0.39449791666666667 0.15225520833333334 0 0Zm0.8469270833333334 0.5817322916666667c0.0026354166666666665 -0.10972916666666667 -0.17554270833333335 0.04791666666666667 0 0Zm0.001365625 -0.15362083333333335c0.45091979166666674 -0.47741770833333336 -0.4366885416666667 0.028198958333333333 0 0ZM4.782442708333334 9.333208333333335c-0.38419583333333335 -0.5481427083333333 -0.23872083333333333 -0.7945302083333333 -0.6094760416666667 -1.2423593750000002 -0.07041354166666666 -0.34255625 -0.6359739583333334 -1.1191895833333334 -0.2924833333333334 -0.296484375 0.31438125 0.48141875 0.4075791666666667 1.2266427083333336 0.901959375 1.53884375Zm8.78901875 5.5040916666666675c0.8299406250000001 -0.536115625 -0.34028020833333333 -0.23330625000000002 0 0Zm0.6333385416666667 0.2480885416666667c0.41558125 -0.3565479166666667 -0.2628947916666667 -0.074390625 0 0Zm-8.391885416666668 -5.377400000000001c0.11876145833333333 -0.17690833333333333 -0.30714583333333334 -0.022808333333333337 0 0Zm8.259683333333333 5.2080625000000005c0.4021885416666667 -0.2592052083333334 -0.092646875 -0.21943437500000001 -0.07290520833333335 0.023742708333333334l0.07290520833333335 -0.023742708333333334ZM8.614242708333334 11.475658333333334c-0.013871875 -0.17551875 -0.21267812500000002 0.014782291666666668 0 0Zm0.3371895833333333 0.193990625c-0.10742916666666667 -0.21679895833333335 -0.16476145833333333 0.03404479166666667 0 0Zm5.76653125 3.421585416666667c0.5154635416666666 -0.37180937500000005 -0.31208125000000003 -0.0713 -0.107884375 0.07074895833333333l0.107884375 -0.07074895833333333Zm-0.197440625 -0.09537812500000001c0.4200854166666667 -0.35163645833333335 -0.4429895833333333 0.15580104166666667 0 0Zm1.008478125 0.6712645833333334c0.28179791666666665 -0.18860000000000002 -0.34258020833333336 -0.060878125 0 0ZM6.071329166666667 9.580386458333333c0.3775354166666667 0.08462083333333334 1.5097104166666668 0.9301583333333334 0.8419916666666667 0.05869791666666667 -0.342125 -0.10122395833333334 -0.13701770833333332 -0.9373697916666667 -0.4858989583333333 -0.7895947916666667 0.234240625 0.39143125 0.19250520833333334 0.5575583333333334 -0.2992395833333334 0.311290625 -0.6175020833333333 -0.301875 -0.3470364583333333 0.14914062500000003 -0.22607083333333333 0.27365208333333335 -0.16488125 0.03761458333333333 0.21758958333333334 0.14286354166666668 0.16921770833333336 0.14595416666666666Zm-1.7209989583333334 -1.3591802083333333c0.06751458333333334 -0.279953125 -0.6230125000000001 -1.5388197916666668 -0.32607291666666666 -0.6310145833333334 0.10697395833333334 0.19030104166666667 0.09585729166666668 0.550778125 0.32607291666666666 0.6310145833333334Zm3.15905 1.9476687500000003c-0.009415625 -0.02326354166666667 -0.19480520833333334 -0.16255729166666666 0 0Zm0.478759375 0.11155000000000001c0 -0.29646041666666667 -0.5293354166666667 -0.12048645833333334 0 0Zm4.151571875 2.6167770833333335c-0.07920625 -0.202471875 -0.31299166666666667 -0.0044802083333333334 0 0Zm0.19926145833333334 0.145475c-0.029564583333333335 -0.113275 -0.11509583333333334 0.022017708333333334 0 0Zm1.6454583333333335 1.036796875c0.1581010416666667 -0.11684479166666667 -0.19753645833333333 -0.01514166666666667 0 0ZM5.2097395833333335 8.440664583333334c0.452740625 -0.17518333333333333 -0.48508437500000007 -0.12496666666666666 0 0Zm6.5644875 4.1354c-0.005270833333333333 -0.29293854166666666 -0.28881770833333337 0.073025 0 0ZM5.0309864583333335 8.023669791666666c0.2906385416666667 -0.09801354166666668 -0.2691958333333333 -0.06442395833333332 0 0Zm0.8437166666666667 0.40884895833333335c-0.004935416666666667 -0.09619270833333335 -0.08907708333333333 0.0368 0 0Zm10.293913541666667 6.31249375c0.3738697916666667 -0.07568437500000001 1.2261875000000002 0.19030104166666667 1.3636364583333334 -0.09894791666666666 -0.45413020833333334 -0.011236458333333333 -1.5705645833333333 -0.3206822916666667 -1.623440625 0.07336041666666668l0.099403125 0.015716666666666667 0.16040104166666666 0.009870833333333334ZM6.142988541666667 8.500153125c0.00675625 -0.29693958333333337 -0.23148541666666667 -0.011116666666666667 0 0Zm-2.2185895833333333 -1.5391552083333333c-0.10076875 -0.5656802083333333 -0.38338125 -0.08565104166666666 0 0Zm0.5288802083333334 0.13299270833333335c0.00675625 -0.18184375 -0.4841739583333334 -0.16349166666666667 0 0Zm0.30233020833333335 0.14868541666666668c-0.06811354166666667 0.08910104166666667 -0.08737604166666668 -0.07084479166666667 0 0Zm1.9028427083333335 1.2203416666666669c0.08965208333333333 -0.082440625 -0.21222291666666668 -0.060878125 0 0Zm-2.1039489583333335 -1.5553510416666667c-0.0514625 -0.427296875 -0.6131416666666667 -0.06408854166666668 0 0Zm-1.0851447916666668 -0.7040635416666666c-0.015261458333333335 -0.19708125 -0.10570416666666667 0.07429479166666667 0 0Zm0.161646875 -0.12175625c-0.026378125000000002 -0.23388124999999998 -0.13883854166666668 0.029468750000000002 0 0Zm0.8912979166666667 0.5319947916666666c0.3770802083333334 -0.14779895833333334 -0.6866458333333334 -0.30635520833333335 -0.07705000000000001 -0.027767708333333335l0.07705000000000001 0.027767708333333335Zm11.932471875000001 7.370685416666667c0.24135625000000002 -0.22115937500000002 -0.30633125 -0.06844895833333334 0 0Zm1.4416208333333334 0.74706875c0.09676770833333333 -0.285703125 -0.24363229166666667 0.037590625 0 0ZM4.613560416666666 6.14675c0.039890625000000006 -0.27676666666666666 -0.2991197916666667 0.05503229166666666 0 0Zm-1.2687135416666666 -0.8500177083333333c-0.06811354166666667 -0.39049687499999997 -0.05869791666666667 -1.0762083333333334 0.59296875 -0.8446270833333334 -0.8697354166666666 0.17290729166666668 0.6023604166666667 1.081503125 0.416515625 0.3640229166666667 0.36584374999999997 0.017992708333333333 0.7156354166666667 -0.21622395833333333 0.5234895833333334 0.13883854166666668 0.7210260416666667 -0.07923020833333333 1.2204375 -0.7043989583333334 1.916834375 -0.6165916666666666 0.5422729166666667 -0.07211458333333333 1.1352416666666667 -0.12633229166666668 1.7197291666666668 -0.34485625000000003 0.4805083333333333 -0.034523958333333334 0.9431197916666667 -0.5518083333333333 0.679865625 -0.8586187500000001 -0.6552125 -0.0554875 -1.3413791666666666 0.02649791666666667 -2.0655197916666665 0.17072708333333333 -0.8025322916666666 0.1665822916666667 -1.5316083333333335 0.4835750000000001 -2.341376041666667 0.6197781250000001 -0.7895708333333333 0.10618333333333334 0.15858020833333336 0.292028125 -0.067634375 0.33364375 -0.41158020833333336 0.14283958333333333 0.49126562500000004 0.23915208333333335 -0.05330729166666667 0.3900416666666667 -0.3362791666666667 -0.06399270833333334 -0.6865260416666666 -0.17954375 -0.5427520833333334 -0.5342708333333334 -0.7560052083333334 0.09858854166666667 -1.4206333333333334 0.41203541666666665 -0.8231843750000001 1.1814572916666668l0.04437083333333334 0.00045520833333333334Zm1.8223427083333334 -0.927978125c0.17690833333333333 -0.6529125 0.9494208333333334 0.53748125 0.29018333333333335 0.08692083333333334 -0.078415625 -0.05917708333333333 -0.20831770833333335 -0.10709375 -0.29018333333333335 -0.08692083333333334Zm0.034404166666666666 -0.31665729166666673c0.2557791666666667 -0.19030104166666667 0.13574791666666666 0.10709375 0 0Zm0.3246833333333333 0.005390625c0.023383333333333336 -0.30048541666666667 0.7439541666666667 0.15901145833333333 0.11878541666666667 0.10800416666666666l-0.11878541666666667 -0.10800416666666666Zm0.444259375 -0.17860937500000001c0.16258125 -0.18998958333333335 0.047126041666666674 0.16828333333333334 0 0Zm0.11385 -0.07613958333333334c0.270465625 -0.3246833333333333 1.5302427083333334 -0.2074072916666667 0.6081104166666667 -0.031864583333333335 -0.24717812500000003 -0.18632395833333332 -0.43659270833333336 0.10970520833333333 -0.6081104166666667 0.031864583333333335Zm1.644428125 -0.2534791666666667c0.8173385416666668 0.31481250000000005 -0.04070520833333333 -0.8872729166666666 0 0Zm0.4667322916666667 -0.0027552083333333335c0.17060729166666666 -0.44691875000000003 0.662328125 -0.17954375 0.07923020833333333 -0.09001145833333334 0.012482291666666668 0.04791666666666667 -0.017441666666666668 0.23115 -0.07923020833333333 0.09001145833333334Zm-3.7660104166666666 2.3709406250000002c0.5096177083333333 -0.3121770833333333 -0.5410270833333334 -0.27092083333333333 0 0Zm0.3770802083333334 0.10433854166666667c0.178753125 -0.18986979166666668 -0.38877187500000004 -0.07705000000000001 0 0Zm-1.1106125 -0.78775c0.29109375000000004 -0.22391458333333333 -0.34485625000000003 -0.08507604166666667 0 0Zm15.051319791666666 9.416032291666665c0.008481250000000001 -0.2597802083333334 -0.22264479166666667 0.11684479166666667 0 0Zm-1.5294281250000001 -1.043984375c0.04346041666666667 -0.29866458333333334 -0.19662604166666667 0.02601875 0 0Zm1.9499447916666666 1.1447770833333333c0.40712395833333337 0.001365625 1.2337583333333335 -0.12681145833333335 0.34797083333333334 -0.12635625 -0.13929375000000002 0.0215625 -0.810103125 0.01708229166666667 -0.34797083333333334 0.12635625Zm-14.029760416666667 -8.912284375c0.32961875 -0.022353124999999998 0.5154635416666666 -0.36320833333333336 -0.06408854166666668 -0.34394583333333334 -0.8979343750000001 -0.092646875 0.7922302083333335 0.30772083333333333 -0.11511979166666667 0.19305624999999998 -0.12175625 0.08059583333333332 0.17197291666666667 0.1733625 0.17920833333333333 0.15088958333333335Zm0.29018333333333335 0.14698437500000003c-0.034523958333333334 -0.21143229166666666 -0.10215833333333334 0.112340625 0 0Zm0.3444010416666667 -0.91813125c0.14283958333333333 -0.17736354166666665 -0.19799166666666668 -0.04746145833333334 0 0Zm-1.0964052083333333 -1.8322135416666667c0.5885125 -0.19971666666666668 1.3928895833333332 -0.4245416666666667 1.6705666666666668 0.0986125 -0.2826125 -0.3399447916666667 -0.11418541666666668 -0.6749541666666667 0.15271041666666665 -0.17736354166666665 0.3775354166666667 0.5029572916666667 0.5664947916666667 -0.22885000000000003 0.3210177083333334 -0.3977322916666667 0.2799770833333334 0.347515625 0.5979041666666667 0.5119177083333333 0.187234375 0.022017708333333334 0.446559375 -0.5370116666666667 -0.893478125 0.07029375 -1.1979885416666667 0.06396875 -0.146409375 0.06581354166666667 -1.5128010416666668 0.3484260416666667 -1.133540625 0.39049687499999997Zm0.3448802083333333 -0.6600281250000001c0.33546458333333334 -0.25302875 1.1603500000000002 0.15088958333333335 0.6310145833333334 -0.2517685416666667 -0.05191770833333333 -0.045631041666666664 -1.1589843750000002 0.3054352083333334 -0.6310145833333334 0.2517685416666667Zm1.2230729166666667 0.05055208333333333c0.39234166666666664 0.009870833333333334 -0.16921770833333336 -0.5276080208333334 0.2983291666666667 -0.2839757291666667 -0.07659479166666666 -0.2507407291666667 -0.544596875 -0.29774697916666665 -0.7734229166666667 -0.3980653125 -0.12944687500000002 0.22930041666666667 0.2632302083333333 0.685155625 0.47509375000000004 0.6820410416666667Zm-1.0085739583333333 -1.1102555208333333c0.13574791666666666 -0.18401197916666667 -0.23824166666666666 0.0936675 0 0Zm0.4998666666666666 0.11957843750000001c0.6327635416666666 -0.08369364583333333 -0.16131145833333335 -0.27229125 -0.127721875 -0.006648437500000001l0.127721875 0.006648437500000001Zm-0.9333447916666667 -0.7299720833333334c-0.44564895833333334 -0.5817322916666667 0.8379666666666666 0.09768052083333334 0.38510625 -0.5114529166666667 -0.38110520833333333 -0.3031325729166667 -0.7469489583333334 0.3417704166666667 -0.38510625 0.5114529166666667ZM10.518930208333334 3.9841031250000003c0.20429270833333335 -0.36193854166666667 -0.8432614583333333 -0.48817499999999997 -0.13747291666666667 -0.12817708333333336 0.06490312499999999 0.0215625 0.05021666666666667 0.15318958333333332 0.13747291666666667 0.12817708333333336Z" stroke-width="1"></path><path fill="#ffffff" d="M6.370712500000001 17.46409166666667c-0.045137500000000004 0.17851354166666666 -0.07319270833333333 0.47799270833333335 -0.08368645833333334 0.898365625 0 0.08263229166666666 -0.03720729166666667 0.12393645833333333 -0.11174166666666667 0.12393645833333333 -0.07458229166666668 0 -0.12647604166666668 -0.036057291666666665 -0.15587291666666667 -0.107884375 -0.079853125 -0.19437395833333335 -0.15551354166666667 -0.32995416666666666 -0.22765208333333337 -0.407315625 -0.08510000000000001 -0.09037083333333333 -0.19825520833333335 -0.14501979166666665 -0.3393697916666667 -0.16361145833333332 -0.15168020833333334 -0.024078125000000002 -0.5295989583333334 -0.035985416666666666 -1.133828125 -0.035985416666666666 -0.13833541666666668 0 -0.22899375 0.014686458333333334 -0.2714479166666667 0.044059375000000005 -0.026617708333333337 0.01854375 -0.039890625000000006 0.05850625 -0.039890625000000006 0.11976770833333333v1.808734375c0 0.06126145833333333 0.038548958333333334 0.09037083333333333 0.115575 0.08787916666666667 0.23706770833333335 -0.0027552083333333335 0.5803666666666667 -0.018879166666666666 1.0301125 -0.04798854166666667 0.08787916666666667 -0.01078125 0.14722395833333335 -0.039315625 0.177746875 -0.08596250000000001 0.030810416666666667 -0.04655104166666667 0.06075833333333333 -0.16686979166666668 0.08986770833333334 -0.3612916666666667 0.018519791666666667 -0.10649479166666667 0.08119479166666667 -0.14779895833333334 0.18768958333333333 -0.12367291666666667 0.09041875 0.018615625 0.12925520833333334 0.059919791666666666 0.11591041666666667 0.12367291666666667 -0.07460625 0.3621541666666667 -0.09873229166666668 0.8332708333333334 -0.07211458333333333 1.4135656250000002 0.0028270833333333334 0.069071875 -0.041040625000000004 0.10647083333333335 -0.131675 0.11181354166666667 -0.07460625 0.008002083333333333 -0.12118125000000002 -0.031960416666666665 -0.1397729166666667 -0.11983958333333333 -0.06899999999999999 -0.3326854166666667 -0.19770416666666668 -0.5104322916666667 -0.3851541666666667 -0.5332166666666667 -0.18768958333333333 -0.022448958333333335 -0.493278125 -0.033805208333333336 -0.9164062500000001 -0.033805208333333336 -0.04791666666666667 0 -0.07177916666666666 0.017178125 -0.07177916666666666 0.051821875v1.7968270833333333c0 0.13308854166666667 0.04904270833333333 0.22374687499999998 0.14751145833333335 0.2714479166666667 0.07736145833333334 0.039962500000000005 0.24368020833333331 0.07594791666666667 0.4990760416666667 0.107884375 0.13062083333333335 0.013272916666666667 0.18768958333333333 0.07070104166666666 0.17192500000000002 0.17163750000000003 -0.0161 0.08787916666666667 -0.13308854166666667 0.12252291666666666 -0.35156458333333335 0.10393125 -0.630846875 -0.050695833333333336 -1.15129375 -0.04791666666666667 -1.5611010416666669 0.008097916666666666 -0.11456875000000001 0.015740624999999998 -0.17163750000000003 -0.030810416666666667 -0.17163750000000003 -0.1397729166666667 0 -0.069359375 0.05706875 -0.10925000000000001 0.17163750000000003 -0.11981562500000001 0.26088229166666665 -0.029396875000000003 0.3911916666666667 -0.25839062500000004 0.3911916666666667 -0.6867895833333334V18.322494791666667c0 -0.17547083333333335 -0.031289583333333336 -0.3105479166666667 -0.09367708333333334 -0.40511145833333334 -0.06269895833333333 -0.09453958333333334 -0.179184375 -0.18050208333333334 -0.34938437499999997 -0.2576 -0.10649479166666667 -0.04791666666666667 -0.14638541666666666 -0.11308333333333333 -0.11976770833333333 -0.19569166666666668 0.013272916666666667 -0.05048020833333333 0.03464375 -0.07851145833333334 0.06375312500000001 -0.08378229166666668 0.026617708333333337 -0.008002083333333333 0.09731875000000001 -0.0027552083333333335 0.211528125 0.016052083333333335 0.16780416666666667 0.026617708333333337 0.5631885416666667 0.039962500000000005 1.1859375 0.039962500000000005 0.7348260416666667 0 1.3694822916666667 -0.0161 1.9047114583333333 -0.04798854166666667 0.17825 -0.01078125 0.2675427083333333 0.003905208333333333 0.2675427083333333 0.04379583333333333 0 0.010877083333333334 -0.0013416666666666668 0.021370833333333335 -0.004192708333333334 0.031960416666666665Z" stroke-width="1"></path><path fill="#ffffff" d="M8.960009375 22.532788541666665c0 0.10647083333333335 -0.059919791666666666 0.15304583333333335 -0.17966354166666668 0.13970104166666666 -0.3671375 -0.03464375 -0.8224177083333334 -0.029396875000000003 -1.3653854166666666 0.015836458333333334 -0.10925000000000001 0.01078125 -0.17630937500000002 0.008002083333333333 -0.20180104166666668 -0.007738541666666668 -0.025276041666666665 -0.016123958333333334 -0.03775833333333333 -0.059919791666666666 -0.03775833333333333 -0.132034375 0 -0.06375312500000001 0.07240208333333334 -0.11756354166666667 0.21742187500000001 -0.161646875 0.14530729166666667 -0.04379583333333333 0.2176375 -0.17496770833333333 0.2176375 -0.39318020833333334V18.380210416666667c0 -0.21572083333333333 -0.031313541666666674 -0.37408541666666667 -0.09370104166666667 -0.47530937500000003 -0.06267500000000001 -0.10115208333333334 -0.1725 -0.17963958333333335 -0.32945104166666667 -0.2353666666666667 -0.08260833333333334 -0.029396875000000003 -0.12393645833333333 -0.07070104166666666 -0.12393645833333333 -0.12393645833333333 0 -0.07987708333333333 0.059919791666666666 -0.1397729166666667 0.17966354166666668 -0.17966354166666668 0.18107708333333336 -0.058578125 0.3688385416666667 -0.148925 0.5631885416666667 -0.2715197916666667 0.15973020833333332 -0.09590520833333334 0.26093020833333336 -0.14360625000000002 0.30331250000000004 -0.14360625000000002 0.09846875 0 0.14787083333333334 0.06765833333333333 0.14787083333333334 0.20352604166666668 0 -0.010517708333333334 -0.0053187500000000006 0.12257083333333335 -0.016123958333333334 0.399265625 -0.007738541666666668 0.26342187499999997 -0.01049375 0.5229385416666668 -0.007738541666666668 0.7786458333333334l0.015764583333333332 3.5655270833333335c0 0.1624854166666667 0.039962500000000005 0.28038437499999996 0.11981562500000001 0.3535770833333333 0.079853125 0.07316875 0.21708645833333334 0.12173229166666667 0.4112208333333333 0.14557083333333334 0.11974375000000001 0.013272916666666667 0.17966354166666668 0.05850625 0.17966354166666668 0.13586770833333334Z" stroke-width="1"></path><path fill="#ffffff" d="M12.571464583333334 22.297373958333335c0 0.055990625 -0.101775 0.14032395833333333 -0.30530104166666666 0.2534072916666667 -0.20378958333333336 0.11315520833333334 -0.36682604166666666 0.16972083333333335 -0.4891333333333333 0.16972083333333335 -0.104003125 0 -0.195715625 -0.05048020833333333 -0.27556875 -0.15170416666666667 -0.079853125 -0.10115208333333334 -0.13593958333333334 -0.15160833333333334 -0.16780416666666667 -0.15160833333333334 -0.0238625 0 -0.15026666666666666 0.05457708333333334 -0.37933229166666665 0.16353958333333335 -0.22873020833333335 0.10925000000000001 -0.45913750000000003 0.16389895833333334 -0.6906947916666667 0.16389895833333334 -0.21818854166666665 0 -0.40070312500000005 -0.06401666666666667 -0.5470645833333333 -0.19157083333333333 -0.15970625 -0.14118645833333335 -0.23955937500000002 -0.33278125000000003 -0.23955937500000002 -0.5751197916666667 0 -0.46055104166666666 0.5271072916666667 -0.7905531250000001 1.5812979166666667 -0.99015 0.18078958333333336 -0.03464375 0.27286145833333336 -0.10790833333333334 0.27535312500000003 -0.21962604166666666l0.008097916666666666 -0.2556114583333333c0.016028125 -0.43649687500000006 -0.17698020833333333 -0.6546854166666667 -0.579025 -0.6546854166666667 -0.114496875 0 -0.22288437500000002 0.102278125 -0.325521875 0.30721770833333334 -0.10230208333333334 0.20520312500000001 -0.2495260416666667 0.3155072916666667 -0.44116875 0.33163125000000004 -0.21821250000000003 0.021083333333333332 -0.3274625 -0.07070104166666666 -0.3274625 -0.27564062500000003 0 -0.12784166666666666 0.1624854166666667 -0.27669479166666666 0.48716875 -0.4472541666666667 0.3407833333333334 -0.17825 0.6683177083333334 -0.2675427083333333 0.9824114583333334 -0.2675427083333333 0.5401885416666667 0 0.80773125 0.257025 0.802484375 0.7708114583333333l-0.016123958333333334 1.6448354166666668c-0.0024677083333333335 0.173075 0.07077291666666667 0.2595166666666667 0.21962604166666666 0.2595166666666667 0.029396875000000003 0 0.08541145833333333 -0.006588541666666667 0.16773229166666667 -0.019933333333333334 0.08270416666666668 -0.013272916666666667 0.13062083333333335 -0.01995729166666667 0.143965625 -0.01995729166666667 0.07709791666666667 0 0.11562291666666666 0.052109375 0.11562291666666666 0.155825Zm-1.229709375 -0.910296875c0.0027552083333333335 -0.06660416666666667 -0.012793750000000001 -0.11066354166666667 -0.046071875 -0.131746875 -0.033302083333333336 -0.021298958333333336 -0.085675 -0.025491666666666666 -0.15752604166666667 -0.012146875000000001 -0.6416281250000001 0.114496875 -0.9624062500000001 0.32353333333333334 -0.9624062500000001 0.6269416666666667 0 0.30606770833333335 0.16631875000000002 0.4591135416666667 0.49910000000000004 0.4591135416666667 0.13308854166666667 0 0.2703697916666667 -0.025204166666666666 0.4112208333333333 -0.07566041666666667 0.165240625 -0.058793750000000006 0.2475854166666667 -0.12920729166666667 0.2475854166666667 -0.211815625l0.008097916666666666 -0.6546854166666667Z" stroke-width="1"></path><path fill="#ffffff" d="M15.53995 21.83794895833333c0 0.28222916666666664 -0.108746875 0.5066229166666666 -0.32554583333333337 0.6729416666666668 -0.21684687500000002 0.16639062500000001 -0.5129958333333333 0.24957395833333337 -0.888446875 0.24957395833333337 -0.25007708333333334 0 -0.5004895833333334 -0.026617708333333337 -0.7505666666666667 -0.079853125 -0.21572083333333333 -0.04798854166666667 -0.3408072916666667 -0.091784375 -0.37545104166666665 -0.131746875 -0.021346875 -0.03739895833333333 -0.031864583333333335 -0.21955416666666666 -0.031864583333333335 -0.5470645833333333 0 -0.14113854166666667 0.031864583333333335 -0.21430729166666668 0.09590520833333334 -0.21955416666666666 0.06380104166666667 -0.008097916666666666 0.11840208333333332 0.026617708333333337 0.16361145833333332 0.10369166666666667 0.19962083333333336 0.34880937500000003 0.5218125 0.5232260416666666 0.9663114583333333 0.5232260416666666 0.37513958333333336 0 0.5629010416666667 -0.130596875 0.5629010416666667 -0.3915510416666667 0 -0.114209375 -0.04245416666666667 -0.21018645833333333 -0.12784166666666666 -0.2872604166666667 -0.09319791666666667 -0.08787916666666667 -0.27393958333333335 -0.19046875000000002 -0.5428958333333334 -0.3075052083333334 -0.38877187500000004 -0.173003125 -0.6482885416666667 -0.3246833333333333 -0.778621875 -0.45530416666666673 -0.14118645833333335 -0.13833541666666668 -0.2116 -0.3246833333333333 -0.2116 -0.5589958333333334 0 -0.2875479166666667 0.11037604166666667 -0.5110072916666666 0.33136770833333334 -0.6707135416666667 0.204915625 -0.15448333333333336 0.47914270833333333 -0.2315572916666667 0.8224177083333334 -0.2315572916666667 0.21572083333333333 0 0.412634375 0.017178125 0.5911479166666667 0.051893749999999995 0.19166666666666668 0.03461979166666666 0.291453125 0.07707395833333333 0.2994791666666667 0.12776979166666666 0.021083333333333332 0.148925 0.06516666666666668 0.36464583333333334 0.131746875 0.646946875 0.008026041666666667 0.03435625 -0.029444791666666668 0.062387500000000005 -0.11178958333333334 0.08368645833333334 -0.08787916666666667 0.01859166666666667 -0.14638541666666666 0.003905208333333333 -0.17575833333333335 -0.04379583333333333 -0.21018645833333333 -0.3435625 -0.4763875 -0.5152 -0.7985791666666667 -0.5152 -0.36464583333333334 0 -0.5470645833333333 0.11703645833333333 -0.5470645833333333 0.35137291666666665 0 0.130525 0.049330208333333334 0.234240625 0.14777500000000002 0.3113385416666667 0.08787916666666667 0.06658020833333333 0.2941604166666667 0.170559375 0.618915625 0.31167395833333333 0.3407354166666667 0.14638541666666666 0.57226875 0.2781322916666667 0.6948635416666668 0.395096875 0.15970625 0.15170416666666667 0.23958333333333334 0.35549375 0.23958333333333334 0.6108895833333333Z" stroke-width="1"></path><path fill="#ffffff" d="M20.237532291666668 22.53669375c0 0.09312604166666667 -0.06267500000000001 0.142528125 -0.18776145833333333 0.14779895833333334 -0.18632395833333332 0.0027552083333333335 -0.4300760416666667 0.016028125 -0.7306333333333334 0.039890625000000006 -0.14914062500000003 0.02937291666666667 -0.2556114583333333 0.010853125 -0.31943645833333334 -0.05572708333333334 -0.42063645833333335 -0.452525 -0.777471875 -0.9264208333333334 -1.070290625 -1.4215916666666668 -0.023838541666666668 -0.04245416666666667 -0.054361458333333335 -0.063825 -0.091784375 -0.063825 -0.045209375 0 -0.12364895833333334 0.039962500000000005 -0.23539062500000002 0.11981562500000001 -0.12535000000000002 0.069071875 -0.1877375 0.16773229166666667 -0.1877375 0.29531041666666663 0 0.090634375 0.0024677083333333335 0.22096770833333335 0.008026041666666667 0.39152708333333336 0.0053187500000000006 0.17022395833333334 0.047701041666666666 0.281965625 0.12755416666666666 0.3352010416666667 0.055990625 0.037470833333333335 0.18526979166666668 0.06658020833333333 0.38735833333333336 0.08795104166666666 0.12506250000000002 0.016028125 0.1877375 0.062603125 0.1877375 0.13970104166666666 0 0.06133333333333334 -0.009990625000000001 0.09930729166666667 -0.029947916666666668 0.11370625000000001 -0.019933333333333334 0.014686458333333334 -0.07268958333333334 0.018040625 -0.15778958333333334 0.010014583333333334 -0.2662010416666667 -0.0238625 -0.7159468750000001 -0.010589583333333335 -1.3494770833333334 0.039890625000000006 -0.15973020833333332 0.013344791666666666 -0.24624375 -0.006684375 -0.2595885416666667 -0.059919791666666666 -0.005270833333333333 -0.018519791666666667 -0.008026041666666667 -0.045137500000000004 -0.008026041666666667 -0.079853125 0 -0.08234479166666667 0.08126666666666667 -0.14501979166666665 0.24375208333333337 -0.18740208333333333 0.14638541666666666 -0.037470833333333335 0.21955416666666666 -0.20910833333333334 0.21955416666666666 -0.5152V18.384115625c0 -0.21818854166666665 -0.021298958333333336 -0.3698927083333334 -0.06401666666666667 -0.45499270833333333 -0.05850625 -0.10925000000000001 -0.18107708333333336 -0.194421875 -0.36742500000000006 -0.2556833333333333 -0.08759166666666666 -0.029109375 -0.131675 -0.07041354166666666 -0.131675 -0.12367291666666667 0 -0.07736145833333334 0.06267500000000001 -0.13728125 0.18768958333333333 -0.17963958333333335 0.19966875 -0.06660416666666667 0.38985000000000003 -0.15836458333333334 0.5709270833333333 -0.27564062500000003 0.14643333333333333 -0.09568958333333333 0.23709166666666667 -0.14367812500000002 0.2714479166666667 -0.14367812500000002 0.10929791666666668 0 0.16389895833333334 0.069071875 0.16389895833333334 0.20769479166666668 0 -0.018807291666666667 -0.001365625 0.11315520833333334 -0.004192708333333334 0.39516875 -0.0024916666666666668 0.19437395833333335 -0.0038333333333333336 0.45530416666666673 -0.0038333333333333336 0.7827427083333334l0.008026041666666667 2.499429166666667c0 0.0692875 0.01859166666666667 0.103715625 0.05572708333333334 0.103715625 0.039962500000000005 0 0.10122395833333334 -0.034428125 0.18383229166666668 -0.103715625 0.22099166666666667 -0.17305104166666668 0.4924875 -0.39928958333333336 0.8144156250000001 -0.6788114583333333 0.06401666666666667 -0.06653229166666667 0.09588125 -0.11976770833333333 0.09588125 -0.15973020833333332 0 -0.07175520833333333 -0.1078125 -0.12252291666666666 -0.32324583333333334 -0.15160833333333334 -0.09319791666666667 -0.010877083333333334 -0.13728125 -0.06267500000000001 -0.132034375 -0.155896875 0.008026041666666667 -0.09312604166666667 0.05464895833333334 -0.13308854166666667 0.1397729166666667 -0.11974375000000001 0.19185833333333333 0.026617708333333337 0.4714041666666667 0.04130416666666667 0.8384458333333333 0.044083333333333335 0.25570729166666667 0.0024916666666666668 0.509953125 0.003905208333333333 0.7628812500000001 0.003905208333333333 0.08234479166666667 0.0027791666666666668 0.12364895833333334 0.051821875 0.12364895833333334 0.14779895833333334 0 0.09034687500000001 -0.06516666666666668 0.13967708333333334 -0.1955 0.14777500000000002 -0.20520312500000001 0.007738541666666668 -0.3982114583333333 0.05431354166666667 -0.5789291666666666 0.13970104166666666 -0.252928125 0.11428125 -0.5232979166666667 0.31531562500000004 -0.8107979166666667 0.6028635416666668 -0.021059375 0.016052083333333335 -0.031936458333333334 0.035985416666666666 -0.031936458333333334 0.05984791666666667 0 0.03718333333333334 0.045233333333333334 0.1265 0.13593958333333334 0.2676145833333333 0.33270937500000003 0.5057604166666667 0.6468750000000001 0.887584375 0.9421614583333334 1.1459510416666667 0.189103125 0.16226979166666666 0.3660114583333334 0.24348854166666667 0.5309645833333334 0.24348854166666667 0.12259479166666669 0 0.19854270833333335 0.008577083333333334 0.22765208333333337 0.026042708333333334 0.029468750000000002 0.017249999999999998 0.044155208333333335 0.06325 0.044155208333333335 0.13756875000000002Z" stroke-width="1"></path></svg>