<svg xmlns="http://www.w3.org/2000/svg"  viewBox="0 0 64 64" width="64px" height="64px" baseProfile="basic"><ellipse cx="32" cy="61" opacity=".3" rx="19" ry="3"/><path fill="#fd3c4f" d="M47.059,17.941l-1.889,1.889c-0.429,0.429-0.466,1.124-0.063,1.578	c3.611,4.08,5.215,9.725,3.982,15.392c-1.63,7.488-8.156,13.104-15.8,13.654C23.059,51.19,14.5,43.076,14.5,33	c0-8.242,8.357-15.918,16.97-24.09c0.337-0.32,0.529-0.76,0.529-1.225C32,6.536,32,4.252,32,2.559c0-0.416-0.497-0.622-0.795-0.332	c-1.297,1.266-2.624,2.531-3.927,3.766c-6.37,6.04-12.899,12.229-15.971,19.071C10.165,27.611,9.5,30.247,9.5,33	c0,7.31,3.504,13.817,8.921,17.929c4.434,3.366,10.15,5.128,16.274,4.413c9.244-1.08,16.99-7.917,19.164-16.966	c1.805-7.512-0.295-15.042-5.125-20.414C48.294,17.474,47.524,17.476,47.059,17.941z"/><circle cx="40" cy="13" r="3" fill="#fd3c4f"/><path fill="#fff" d="M14.5,33c0-4.264,2.306-8.842,7.256-14.409c1.801-2.025,1.645-5.099-0.312-6.948	c-4.234,4.273-8.013,8.69-10.137,13.421C10.165,27.611,9.5,30.247,9.5,33c0,1.699,0.197,3.352,0.555,4.944	C12.552,37.664,14.5,35.571,14.5,33z" opacity=".3"/><path d="M48.997,37.209c-1.235,5.138-4.89,9.529-9.778,11.745c-2.341,1.061-3.443,3.698-2.669,6.086	c8.411-1.719,15.282-8.227,17.309-16.663c0.397-1.652,0.595-3.304,0.626-4.935C51.986,33.124,49.599,34.705,48.997,37.209z" opacity=".15"/><path fill="none" stroke="#fff" stroke-linecap="round" stroke-linejoin="round" stroke-miterlimit="10" stroke-width="3" d="M13.315,26.837c1.027-2.495,2.348-4.549,3.668-6.261"/></svg>