<?xml version="1.0" encoding="iso-8859-1"?>
<!-- Generator: Adobe Illustrator 24.1.2, SVG Export Plug-In . SVG Version: 6.00 Build 0)  -->
<svg version="1.1" baseProfile="basic" id="Layer_1"
	 xmlns="http://www.w3.org/2000/svg" xmlns:xlink="http://www.w3.org/1999/xlink" x="0px" y="0px" viewBox="0 0 48 48"
	 xml:space="preserve">
<rect x="-192.079" y="-481.995" style="display:none;fill:#2FC0D4;" width="802.75" height="800.125"/>
<path d="M39.5,16c-2.014,0-3.969,0.731-5.5,2.034C32.469,16.731,30.514,16,28.5,16c-1.763,0-3.474,0.553-4.907,1.572
	C22.391,16.564,20.868,16,19.292,16c-2.558,0-4.857,1.421-6,3.708L10,26.292l-4.316-8.634c-0.359-0.717-0.975-1.252-1.736-1.505
	c-0.761-0.253-1.575-0.195-2.29,0.163C1.311,16.49,1.017,16.727,0.772,17H0v2h0.013c-0.001,0.452,0.088,0.91,0.304,1.342l7,14
	C7.828,35.364,8.856,36,10,36s2.172-0.636,2.684-1.658l5.975-11.951C18.781,22.146,19.018,22,19.292,22
	C19.683,22,20,22.317,20,22.708V33c0,1.654,1.346,3,3,3s3-1.346,3-3v-8.5c0-1.379,1.122-2.5,2.5-2.5s2.5,1.121,2.5,2.5V33
	c0,1.654,1.346,3,3,3s3-1.346,3-3v-8.5c0-1.379,1.122-2.5,2.5-2.5s2.5,1.121,2.5,2.5V33c0,1.654,1.346,3,3,3s3-1.346,3-3v-8.5
	C48,19.813,44.187,16,39.5,16z"/>
<image style="display:none;overflow:visible;opacity:0.53;" width="5000" height="762" xlink:href="D01D9785.jpg"  transform="matrix(0.0236 0 0 0.0236 2 15)">
</image>
<path style="fill:#FFFFFF;" d="M45,33c-1.104,0-2-0.896-2-2v-8.5c0-1.93-1.57-3.5-3.5-3.5S36,20.57,36,22.5V31c0,1.104-0.896,2-2,2
	s-2-0.896-2-2v-8.5c0-4.136,3.364-7.5,7.5-7.5s7.5,3.364,7.5,7.5V31C47,32.104,46.104,33,45,33z"/>
<path style="fill:#FFFFFF;" d="M34,33c-1.104,0-2-0.896-2-2v-8.5c0-1.93-1.57-3.5-3.5-3.5S25,20.57,25,22.5V31c0,1.104-0.896,2-2,2
	s-2-0.896-2-2v-8.5c0-4.136,3.364-7.5,7.5-7.5s7.5,3.364,7.5,7.5V31C36,32.104,35.104,33,34,33z"/>
<path style="fill:#FFFFFF;" d="M23,33c-1.104,0-2-0.896-2-2V20.708C21,19.767,20.234,19,19.292,19c-0.651,0-1.237,0.361-1.528,0.944
	l-5.975,11.95C11.45,32.572,10.757,33,10,33s-1.45-0.428-1.789-1.105l-7-14c-0.494-0.988-0.093-2.189,0.895-2.684
	c0.986-0.494,2.189-0.095,2.684,0.895L10,26.528l4.186-8.373C15.159,16.209,17.116,15,19.292,15C22.439,15,25,17.561,25,20.708V31
	C25,32.104,24.104,33,23,33z"/>
<path d="M45,34c-1.654,0-3-1.346-3-3v-8.5c0-1.379-1.122-2.5-2.5-2.5S37,21.121,37,22.5V31c0,1.654-1.346,3-3,3s-3-1.346-3-3v-8.5
	c0-1.379-1.122-2.5-2.5-2.5S26,21.121,26,22.5V31c0,1.654-1.346,3-3,3s-3-1.346-3-3V20.708C20,20.317,19.683,20,19.292,20
	c-0.274,0-0.511,0.146-0.633,0.391l-5.975,11.951C12.172,33.364,11.144,34,10,34s-2.172-0.636-2.684-1.658l-7-14
	c-0.739-1.479-0.137-3.285,1.342-4.025c0.715-0.358,1.528-0.416,2.29-0.163c0.761,0.253,1.377,0.788,1.736,1.505L10,24.292
	l3.292-6.584c1.144-2.287,3.443-3.708,6-3.708c1.576,0,3.099,0.564,4.301,1.572C25.026,14.553,26.737,14,28.5,14
	c2.014,0,3.969,0.731,5.5,2.034C35.531,14.731,37.486,14,39.5,14c4.687,0,8.5,3.813,8.5,8.5V31C48,32.654,46.654,34,45,34z M39.5,18
	c2.481,0,4.5,2.019,4.5,4.5V31c0,0.552,0.449,1,1,1s1-0.448,1-1v-8.5c0-3.584-2.916-6.5-6.5-6.5c-1.823,0-3.515,0.745-4.766,2.097
	c-0.379,0.41-1.09,0.41-1.469,0C32.015,16.745,30.323,16,28.5,16c-1.582,0-3.111,0.585-4.306,1.646
	c-0.411,0.365-1.04,0.33-1.407-0.079C21.891,16.571,20.617,16,19.292,16c-1.795,0-3.409,0.997-4.211,2.603l-4.186,8.373
	c-0.339,0.678-1.45,0.678-1.789,0L3.895,16.553c-0.12-0.239-0.325-0.418-0.579-0.502c-0.253-0.083-0.525-0.066-0.763,0.055
	c-0.494,0.246-0.694,0.849-0.448,1.342l7,14c0.341,0.682,1.448,0.682,1.789,0l5.975-11.95C17.331,18.574,18.259,18,19.292,18
	C20.785,18,22,19.215,22,20.708V31c0,0.552,0.449,1,1,1s1-0.448,1-1v-8.5c0-2.481,2.019-4.5,4.5-4.5s4.5,2.019,4.5,4.5V31
	c0,0.552,0.449,1,1,1s1-0.448,1-1v-8.5C35,20.019,37.019,18,39.5,18z"/>
</svg>