<svg xmlns="http://www.w3.org/2000/svg"  viewBox="0 0 64 64" width="64px" height="64px"><linearGradient id="cQi0QBP1KU9nICJu2_tf8a" x1="32" x2="32" y1="8.522" y2="59.979" gradientUnits="userSpaceOnUse"><stop offset="0" stop-color="#1a6dff"/><stop offset="1" stop-color="#c822ff"/></linearGradient><path fill="url(#cQi0QBP1KU9nICJu2_tf8a)" d="M50,55H14c-2.76,0-5-2.24-5-5V14c0-2.76,2.24-5,5-5h36c2.76,0,5,2.24,5,5v36	C55,52.76,52.76,55,50,55z M14,11c-1.65,0-3,1.35-3,3v36c0,1.65,1.35,3,3,3h36c1.65,0,3-1.35,3-3V14c0-1.65-1.35-3-3-3H14z"/><linearGradient id="cQi0QBP1KU9nICJu2_tf8b" x1="27.169" x2="27.169" y1="25.837" y2="38.947" gradientUnits="userSpaceOnUse"><stop offset="0" stop-color="#6dc7ff"/><stop offset="1" stop-color="#e6abff"/></linearGradient><path fill="url(#cQi0QBP1KU9nICJu2_tf8b)" d="M32,33c0,2.762-2.163,5-4.831,5s-4.831-2.238-4.831-5s2.163-5,4.831-5S32,30.238,32,33z M27.169,30.24c-1.335,0-2.416,1.236-2.416,2.76s1.081,2.76,2.416,2.76s2.416-1.236,2.416-2.76S28.504,30.24,27.169,30.24z"/><linearGradient id="cQi0QBP1KU9nICJu2_tf8c" x1="45.688" x2="45.688" y1="25.837" y2="38.947" gradientUnits="userSpaceOnUse"><stop offset="0" stop-color="#6dc7ff"/><stop offset="1" stop-color="#e6abff"/></linearGradient><path fill="url(#cQi0QBP1KU9nICJu2_tf8c)" d="M50.519,33c0,2.762-2.163,5-4.831,5c-2.668,0-4.831-2.238-4.831-5s2.163-5,4.831-5 C48.356,28,50.519,30.238,50.519,33z M45.688,30.24c-1.335,0-2.416,1.236-2.416,2.76s1.081,2.76,2.416,2.76 c1.335,0,2.416-1.236,2.416-2.76S47.022,30.24,45.688,30.24z"/><linearGradient id="cQi0QBP1KU9nICJu2_tf8d" x1="36.831" x2="36.831" y1="25.837" y2="38.947" gradientUnits="userSpaceOnUse"><stop offset="0" stop-color="#6dc7ff"/><stop offset="1" stop-color="#e6abff"/></linearGradient><polygon fill="url(#cQi0QBP1KU9nICJu2_tf8d)" points="36.026,35.416 36.026,28.169 33.61,28.169 33.61,37.831 40.052,37.831 40.052,35.416"/><linearGradient id="cQi0QBP1KU9nICJu2_tf8e" x1="17.91" x2="17.91" y1="25.837" y2="38.947" gradientUnits="userSpaceOnUse"><stop offset="0" stop-color="#6dc7ff"/><stop offset="1" stop-color="#e6abff"/></linearGradient><polygon fill="url(#cQi0QBP1KU9nICJu2_tf8e)" points="22.338,28.169 19.117,33.805 19.117,37.831 16.702,37.831 16.702,33.805 13.481,28.169 15.898,28.169 17.91,31.39 19.922,28.169"/></svg>