<?xml version="1.0" standalone="no"?>
<!DOCTYPE svg PUBLIC "-//W3C//DTD SVG 20010904//EN"
 "http://www.w3.org/TR/2001/REC-SVG-20010904/DTD/svg10.dtd">
<svg version="1.0" xmlns="http://www.w3.org/2000/svg"
 width="700.000000pt" height="700.000000pt" viewBox="0 0 700.000000 700.000000"
 preserveAspectRatio="xMidYMid meet">
<metadata>
Created by potrace 1.14, written by Peter Selinger 2001-2017
</metadata>
<g transform="translate(0.000000,700.000000) scale(0.100000,-0.100000)"
fill="#000000" stroke="none">
<path d="M3278 6996 c-1 -2 -42 -6 -89 -10 -47 -4 -95 -8 -105 -10 -10 -2 -45
-7 -78 -11 -67 -8 -105 -14 -126 -20 -8 -3 -32 -7 -54 -11 -53 -8 -56 -9 -191
-42 -376 -94 -753 -263 -1084 -485 -58 -38 -110 -74 -115 -78 -6 -5 -49 -39
-96 -76 -288 -226 -541 -497 -741 -794 -134 -199 -272 -460 -354 -669 -90
-228 -172 -528 -200 -729 -2 -14 -6 -42 -10 -62 -6 -40 -10 -75 -22 -199 -15
-162 -8 -592 12 -711 2 -13 6 -46 9 -74 29 -250 122 -592 238 -870 209 -502
524 -931 964 -1315 49 -43 235 -184 304 -231 353 -239 790 -427 1195 -515 72
-16 211 -41 274 -50 25 -3 57 -8 71 -10 163 -25 682 -25 842 1 13 2 46 7 73
10 86 12 90 13 200 34 650 126 1301 475 1775 952 178 179 369 415 475 585 107
173 258 462 280 534 4 14 11 30 15 35 9 10 54 136 96 265 54 164 119 467 140
645 4 33 9 76 11 95 8 69 10 517 3 595 -14 151 -21 210 -25 225 -2 8 -7 35
-10 60 -8 57 -39 205 -60 290 -16 63 -20 79 -45 165 -60 207 -190 507 -315
725 -50 87 -172 275 -209 321 -12 15 -30 39 -41 55 -20 28 -65 85 -75 94 -3 3
-37 43 -77 90 -79 94 -234 248 -358 356 -470 409 -1120 711 -1720 800 -27 4
-57 9 -65 10 -8 2 -42 6 -76 9 -33 4 -74 9 -90 11 -33 5 -540 14 -546 10z
m486 -630 c25 -3 67 -9 94 -12 43 -5 188 -28 237 -38 11 -2 40 -9 65 -16 25
-7 56 -14 69 -17 115 -20 473 -161 616 -240 365 -204 593 -391 869 -713 12
-14 32 -41 46 -60 13 -19 27 -37 30 -40 12 -9 116 -163 160 -235 89 -146 191
-365 256 -548 99 -282 158 -639 157 -952 0 -79 -11 -279 -17 -313 -2 -9 -7
-42 -10 -73 -4 -31 -9 -67 -11 -80 -9 -44 -13 -64 -20 -104 -14 -76 -56 -230
-97 -350 -100 -299 -271 -609 -481 -873 -81 -103 -331 -351 -437 -436 -404
-321 -893 -532 -1390 -600 -206 -29 -445 -37 -615 -22 -134 12 -180 17 -195
21 -8 2 -33 7 -55 10 -23 3 -52 8 -65 10 -14 3 -38 8 -55 11 -288 52 -666 205
-954 386 -80 50 -273 188 -291 208 -3 3 -46 42 -97 87 -96 87 -191 183 -264
269 -68 79 -79 93 -148 189 -254 352 -433 785 -501 1210 -6 39 -13 84 -16 100
-23 142 -23 535 1 705 2 19 7 53 10 75 3 22 7 50 9 61 2 12 7 37 10 55 3 19
19 89 35 156 294 1195 1345 2083 2566 2169 50 3 91 7 93 9 5 4 352 -3 396 -9z"/>
<path d="M3029 5287 c-47 -45 -159 -152 -249 -237 -90 -85 -182 -173 -205
-195 -98 -93 -323 -307 -365 -346 -25 -23 -112 -106 -195 -184 -82 -79 -171
-162 -196 -186 -26 -24 -114 -108 -195 -185 -82 -78 -194 -184 -248 -235 -54
-52 -129 -122 -165 -157 l-66 -63 45 -41 c25 -23 86 -80 136 -127 171 -162
379 -359 414 -391 19 -18 96 -90 170 -160 74 -70 153 -144 175 -165 22 -20
107 -100 190 -178 82 -78 163 -155 179 -170 33 -31 234 -220 311 -292 28 -26
115 -109 194 -184 79 -75 147 -137 151 -139 4 -2 8 199 8 445 l1 448 -43 40
c-24 22 -85 79 -137 127 -52 47 -108 99 -124 115 -17 15 -84 78 -149 138 -66
61 -135 125 -155 144 -20 18 -61 56 -91 83 -30 28 -104 96 -164 152 -60 55
-122 113 -139 127 l-31 27 36 33 c153 145 299 282 328 309 43 40 286 268 394
370 127 120 129 122 203 191 l71 65 0 452 c0 249 -1 452 -2 452 0 0 -40 -37
-87 -83z"/>
<path d="M3870 4918 l0 -454 47 -43 c26 -23 84 -77 128 -119 45 -42 137 -129
204 -192 68 -63 140 -131 161 -150 40 -38 143 -134 260 -244 41 -38 109 -103
151 -143 l77 -73 -66 -63 c-37 -34 -71 -66 -77 -72 -7 -5 -62 -57 -125 -115
-167 -155 -166 -155 -274 -254 -55 -50 -116 -107 -137 -126 -20 -19 -85 -80
-145 -135 -59 -55 -130 -120 -156 -145 l-48 -45 2 -448 3 -449 41 39 c54 49
154 143 334 313 80 76 161 152 180 170 68 63 304 285 345 325 22 22 94 90 159
150 65 61 142 133 170 160 29 28 117 111 196 185 79 74 182 171 229 215 47 44
121 114 165 157 45 42 96 89 115 106 l34 29 -98 94 c-54 52 -115 110 -135 129
-21 19 -111 105 -200 190 -90 85 -175 166 -190 180 -15 14 -94 89 -176 167
-82 78 -169 160 -194 184 -25 23 -119 113 -210 199 -91 87 -181 172 -200 190
-19 18 -105 99 -190 180 -85 81 -175 167 -200 190 -25 23 -75 71 -112 107
l-68 66 0 -455z"/>
</g>
</svg>
